<?xml version="1.0" encoding="UTF-8"?>
<!DOCTYPE svg PUBLIC "-//W3C//DTD SVG 1.1//EN"
    "http://www.w3.org/Graphics/SVG/1.1/DTD/svg11.dtd"><svg xmlns="http://www.w3.org/2000/svg" height="600.0000" stroke-opacity="1" viewBox="0 0 600 600" font-size="1" width="600.0000" xmlns:xlink="http://www.w3.org/1999/xlink" stroke="rgb(0,0,0)" version="1.1"><defs></defs><g stroke-linejoin="miter" stroke-opacity="1.0" fill-opacity="0.0" stroke="rgb(255,0,0)" stroke-width="2.4" fill="rgb(0,0,0)" stroke-dashoffset="0.0" stroke-linecap="butt" stroke-miterlimit="10.0" stroke-dasharray="3.0,3.0"><path d="M 300.0000,300.0000 l 90.0000,-90.0000 l -90.0000,-90.0000 "/></g><g stroke-linejoin="miter" stroke-opacity="1.0" fill-opacity="1.0" font-size="12.0px" stroke="rgb(0,0,0)" stroke-width="2.4" fill="rgb(0,0,0)" stroke-linecap="butt" stroke-miterlimit="10.0"><text dominant-baseline="middle" transform="matrix(1.0000,0.0000,0.0000,1.0000,414.0000,45.0000)" stroke="none" text-anchor="middle">Clock</text></g><g stroke-linejoin="miter" stroke-opacity="1.0" fill-opacity="0.0" stroke="rgb(0,0,0)" stroke-width="2.4" fill="rgb(0,0,0)" stroke-dashoffset="0.0" stroke-linecap="butt" stroke-miterlimit="10.0" stroke-dasharray="3.0,3.0"><path d="M 390.0000,570.0000 l 0.0000,-519.0000 "/></g><g stroke-linejoin="miter" stroke-opacity="1.0" fill-opacity="1.0" stroke="rgb(0,0,0)" stroke-width="0.0" fill="rgb(0,0,0)" stroke-dashoffset="0.0" stroke-linecap="butt" stroke-miterlimit="10.0" stroke-dasharray="3.0,3.0"></g><g stroke-linejoin="miter" stroke-opacity="1.0" fill-opacity="1.0" stroke="rgb(0,0,0)" stroke-width="0.0" fill="rgb(0,0,0)" stroke-dashoffset="0.0" stroke-linecap="butt" stroke-miterlimit="10.0" stroke-dasharray="3.0,3.0"></g><g stroke-linejoin="miter" stroke-opacity="1.0" fill-opacity="1.0" stroke="rgb(0,0,0)" stroke-width="0.0" fill="rgb(0,0,0)" stroke-dashoffset="0.0" stroke-linecap="butt" stroke-miterlimit="10.0" stroke-dasharray="3.0,3.0"><path d="M 390.0000,30.0000 l -7.9818,24.5654 l 7.9818,-4.1963 l 7.9818,4.1963 Z"/></g><g stroke-linejoin="miter" stroke-opacity="1.0" fill-opacity="1.0" stroke="rgb(0,0,0)" stroke-width="0.0" fill="rgb(0,0,0)" stroke-dashoffset="0.0" stroke-linecap="butt" stroke-miterlimit="10.0" stroke-dasharray="3.0,3.0"><path d="M 390.0000,50.3691 l -0.0000,0.6309 l -1.2000,-0.0000 l 1.2000,-0.6309 l -0.0000,0.6309 l 1.2000,0.0000 Z"/></g><g stroke-linejoin="miter" stroke-opacity="1.0" fill-opacity="1.0" font-size="12.0px" stroke="rgb(0,0,0)" stroke-width="2.4" fill="rgb(197,200,201)" stroke-linecap="butt" stroke-miterlimit="10.0"><text dominant-baseline="middle" transform="matrix(1.0000,0.0000,0.0000,1.0000,579.0000,285.0000)" stroke="none" text-anchor="middle">x</text></g><g stroke-linejoin="miter" stroke-opacity="1.0" fill-opacity="1.0" font-size="12.0px" stroke="rgb(0,0,0)" stroke-width="2.4" fill="rgb(197,200,201)" stroke-linecap="butt" stroke-miterlimit="10.0"><text dominant-baseline="middle" transform="matrix(1.0000,0.0000,0.0000,1.0000,324.0000,21.0000)" stroke="none" text-anchor="middle">Time</text></g><g stroke-linejoin="miter" stroke-opacity="1.0" fill-opacity="0.0" stroke="rgb(197,200,201)" stroke-width="2.4" fill="rgb(0,0,0)" stroke-linecap="butt" stroke-miterlimit="10.0"><path d="M 21.0000,300.0000 h 558.0000 "/></g><g stroke-linejoin="miter" stroke-opacity="1.0" fill-opacity="1.0" stroke="rgb(197,200,201)" stroke-width="0.0" fill="rgb(197,200,201)" stroke-linecap="butt" stroke-miterlimit="10.0"><path d="M 0.0000,300.0000 l 25.2905,-10.4757 c -5.7855,5.7855 -5.7855,15.1658 0.0000 20.9513l -25.2905,-10.4757 Z"/></g><g stroke-linejoin="miter" stroke-opacity="1.0" fill-opacity="1.0" stroke="rgb(197,200,201)" stroke-width="0.0" fill="rgb(197,200,201)" stroke-linecap="butt" stroke-miterlimit="10.0"><path d="M 21.0000,301.2000 c -0.0649,-0.7987 -0.0649,-1.6013 0.0000 -2.4000Z"/></g><g stroke-linejoin="miter" stroke-opacity="1.0" fill-opacity="1.0" stroke="rgb(197,200,201)" stroke-width="0.0" fill="rgb(197,200,201)" stroke-linecap="butt" stroke-miterlimit="10.0"><path d="M 600.0000,300.0000 l -25.2905,-10.4757 c 5.7855,5.7855 5.7855,15.1658 0.0000 20.9513l 25.2905,-10.4757 Z"/></g><g stroke-linejoin="miter" stroke-opacity="1.0" fill-opacity="1.0" stroke="rgb(197,200,201)" stroke-width="0.0" fill="rgb(197,200,201)" stroke-linecap="butt" stroke-miterlimit="10.0"><path d="M 579.0000,301.2000 c 0.0649,-0.7987 0.0649,-1.6013 -0.0000 -2.4000Z"/></g><g stroke-linejoin="miter" stroke-opacity="1.0" fill-opacity="0.0" stroke="rgb(197,200,201)" stroke-width="2.4" fill="rgb(0,0,0)" stroke-linecap="butt" stroke-miterlimit="10.0"><path d="M 300.0000,579.0000 l 0.0000,-558.0000 "/></g><g stroke-linejoin="miter" stroke-opacity="1.0" fill-opacity="1.0" stroke="rgb(197,200,201)" stroke-width="0.0" fill="rgb(197,200,201)" stroke-linecap="butt" stroke-miterlimit="10.0"><path d="M 300.0000,600.0000 l -10.4757,-25.2905 c 5.7855,5.7855 15.1658,5.7855 20.9513 0.0000l -10.4757,25.2905 Z"/></g><g stroke-linejoin="miter" stroke-opacity="1.0" fill-opacity="1.0" stroke="rgb(197,200,201)" stroke-width="0.0" fill="rgb(197,200,201)" stroke-linecap="butt" stroke-miterlimit="10.0"><path d="M 301.2000,579.0000 c -0.7987,0.0649 -1.6013,0.0649 -2.4000 -0.0000Z"/></g><g stroke-linejoin="miter" stroke-opacity="1.0" fill-opacity="1.0" stroke="rgb(197,200,201)" stroke-width="0.0" fill="rgb(197,200,201)" stroke-linecap="butt" stroke-miterlimit="10.0"><path d="M 300.0000,-0.0000 l -10.4757,25.2905 c 5.7855,-5.7855 15.1658,-5.7855 20.9513 0.0000l -10.4757,-25.2905 Z"/></g><g stroke-linejoin="miter" stroke-opacity="1.0" fill-opacity="1.0" stroke="rgb(197,200,201)" stroke-width="0.0" fill="rgb(197,200,201)" stroke-linecap="butt" stroke-miterlimit="10.0"><path d="M 301.2000,21.0000 c -0.7987,-0.0649 -1.6013,-0.0649 -2.4000 0.0000Z"/></g><g stroke-linejoin="miter" stroke-opacity="1.0" fill-opacity="1.0" font-size="12.0px" stroke="rgb(0,0,0)" stroke-width="2.4" fill="rgb(0,0,0)" stroke-linecap="butt" stroke-miterlimit="10.0"><text dominant-baseline="middle" transform="matrix(1.0000,0.0000,0.0000,1.0000,450.0000,204.0000)" stroke="none" text-anchor="middle">The Present t=1</text></g><g stroke-linejoin="miter" stroke-opacity="1.0" fill-opacity="0.0" stroke="rgb(0,0,0)" stroke-width="2.4" fill="rgb(0,0,0)" stroke-dashoffset="0.0" stroke-linecap="butt" stroke-miterlimit="10.0" stroke-dasharray="3.0,3.0"><path d="M 7.5000,210.0000 h 585.0000 "/></g><g stroke-linejoin="miter" stroke-opacity="1.0" fill-opacity="1.0" font-size="12.0px" stroke="rgb(0,0,0)" stroke-width="2.4" fill="rgb(0,0,0)" stroke-linecap="butt" stroke-miterlimit="10.0"><text dominant-baseline="middle" transform="matrix(1.0000,0.0000,0.0000,1.0000,270.0000,294.0000)" stroke="none" text-anchor="middle">Us t=0</text></g><g stroke-linejoin="miter" stroke-opacity="1.0" fill-opacity="1.0" font-size="12.0px" stroke="rgb(0,0,0)" stroke-width="2.4" fill="rgb(0,0,0)" stroke-linecap="butt" stroke-miterlimit="10.0"><text dominant-baseline="middle" transform="matrix(1.0000,0.0000,0.0000,1.0000,270.0000,204.0000)" stroke="none" text-anchor="middle">Us t=1</text></g><g stroke-linejoin="miter" stroke-opacity="1.0" fill-opacity="1.0" font-size="12.0px" stroke="rgb(0,0,0)" stroke-width="2.4" fill="rgb(0,0,0)" stroke-linecap="butt" stroke-miterlimit="10.0"><text dominant-baseline="middle" transform="matrix(1.0000,0.0000,0.0000,1.0000,270.0000,126.0000)" stroke="none" text-anchor="middle">Us t=2</text></g><g stroke-linejoin="miter" stroke-opacity="1.0" fill-opacity="0.0" stroke="rgb(0,0,0)" stroke-width="2.4" fill="rgb(0,0,0)" stroke-dashoffset="0.0" stroke-linecap="butt" stroke-miterlimit="10.0" stroke-dasharray="3.0,3.0"><path d="M 300.0000,570.0000 l 0.0000,-519.0000 "/></g><g stroke-linejoin="miter" stroke-opacity="1.0" fill-opacity="1.0" stroke="rgb(0,0,0)" stroke-width="0.0" fill="rgb(0,0,0)" stroke-dashoffset="0.0" stroke-linecap="butt" stroke-miterlimit="10.0" stroke-dasharray="3.0,3.0"></g><g stroke-linejoin="miter" stroke-opacity="1.0" fill-opacity="1.0" stroke="rgb(0,0,0)" stroke-width="0.0" fill="rgb(0,0,0)" stroke-dashoffset="0.0" stroke-linecap="butt" stroke-miterlimit="10.0" stroke-dasharray="3.0,3.0"></g><g stroke-linejoin="miter" stroke-opacity="1.0" fill-opacity="1.0" stroke="rgb(0,0,0)" stroke-width="0.0" fill="rgb(0,0,0)" stroke-dashoffset="0.0" stroke-linecap="butt" stroke-miterlimit="10.0" stroke-dasharray="3.0,3.0"><path d="M 300.0000,30.0000 l -7.9818,24.5654 l 7.9818,-4.1963 l 7.9818,4.1963 Z"/></g><g stroke-linejoin="miter" stroke-opacity="1.0" fill-opacity="1.0" stroke="rgb(0,0,0)" stroke-width="0.0" fill="rgb(0,0,0)" stroke-dashoffset="0.0" stroke-linecap="butt" stroke-miterlimit="10.0" stroke-dasharray="3.0,3.0"><path d="M 300.0000,50.3691 l -0.0000,0.6309 l -1.2000,-0.0000 l 1.2000,-0.6309 l -0.0000,0.6309 l 1.2000,0.0000 Z"/></g><g stroke-linejoin="miter" stroke-opacity="1.0" fill-opacity="1.0" stroke="rgb(0,0,0)" stroke-width="2.4" fill="rgb(0,0,0)" stroke-linecap="butt" stroke-miterlimit="10.0"><path d="M 303.0000,120.0000 c 0.0000,-1.6569 -1.3431,-3.0000 -3.0000 -3.0000c -1.6569,-0.0000 -3.0000,1.3431 -3.0000 3.0000c -0.0000,1.6569 1.3431,3.0000 3.0000 3.0000c 1.6569,0.0000 3.0000,-1.3431 3.0000 -3.0000Z"/></g><g stroke-linejoin="miter" stroke-opacity="1.0" fill-opacity="1.0" font-size="12.0px" stroke="rgb(0,0,0)" stroke-width="2.4" fill="rgb(0,0,0)" stroke-linecap="butt" stroke-miterlimit="10.0"><text dominant-baseline="middle" transform="matrix(1.0000,0.0000,0.0000,1.0000,324.0000,45.0000)" stroke="none" text-anchor="middle">Us</text></g><g stroke-linejoin="miter" stroke-opacity="1.0" fill-opacity="1.0" font-size="12.0px" stroke="rgb(0,0,0)" stroke-width="2.4" fill="rgb(0,0,0)" stroke-linecap="butt" stroke-miterlimit="10.0"><text dominant-baseline="middle" transform="matrix(1.0000,0.0000,0.0000,1.0000,420.0000,225.0000)" stroke="none" text-anchor="middle">Clock t=1</text></g><g stroke-linejoin="miter" stroke-opacity="1.0" fill-opacity="1.0" stroke="rgb(0,0,0)" stroke-width="2.4" fill="rgb(0,0,0)" stroke-linecap="butt" stroke-miterlimit="10.0"><path d="M 393.0000,210.0000 c 0.0000,-1.6569 -1.3431,-3.0000 -3.0000 -3.0000c -1.6569,-0.0000 -3.0000,1.3431 -3.0000 3.0000c -0.0000,1.6569 1.3431,3.0000 3.0000 3.0000c 1.6569,0.0000 3.0000,-1.3431 3.0000 -3.0000Z"/></g><g stroke-linejoin="miter" stroke-opacity="1.0" fill-opacity="1.0" stroke="rgb(0,0,0)" stroke-width="2.4" fill="rgb(0,0,0)" stroke-linecap="butt" stroke-miterlimit="10.0"><path d="M 303.0000,210.0000 c 0.0000,-1.6569 -1.3431,-3.0000 -3.0000 -3.0000c -1.6569,-0.0000 -3.0000,1.3431 -3.0000 3.0000c -0.0000,1.6569 1.3431,3.0000 3.0000 3.0000c 1.6569,0.0000 3.0000,-1.3431 3.0000 -3.0000Z"/></g><g stroke-linejoin="miter" stroke-opacity="1.0" fill-opacity="1.0" stroke="rgb(0,0,0)" stroke-width="2.4" fill="rgb(0,0,0)" stroke-linecap="butt" stroke-miterlimit="10.0"><path d="M 303.0000,300.0000 c 0.0000,-1.6569 -1.3431,-3.0000 -3.0000 -3.0000c -1.6569,-0.0000 -3.0000,1.3431 -3.0000 3.0000c -0.0000,1.6569 1.3431,3.0000 3.0000 3.0000c 1.6569,0.0000 3.0000,-1.3431 3.0000 -3.0000Z"/></g></svg>