<?xml version="1.0" encoding="UTF-8"?>
<!DOCTYPE svg PUBLIC "-//W3C//DTD SVG 1.1//EN"
    "http://www.w3.org/Graphics/SVG/1.1/DTD/svg11.dtd"><svg xmlns="http://www.w3.org/2000/svg" height="200.0000" stroke-opacity="1" viewBox="0 0 600 200" font-size="1" width="600.0000" xmlns:xlink="http://www.w3.org/1999/xlink" stroke="rgb(0,0,0)" version="1.1"><defs></defs><g stroke-linejoin="miter" stroke-opacity="1.0" fill-opacity="0.0" stroke="rgb(0,0,0)" stroke-width="1.3067270723253046" fill="rgb(0,0,0)" stroke-linecap="butt" stroke-miterlimit="10.0"><path d="M 428.3096,189.4094 c 0.0000,-104.6079 -84.8015,-189.4094 -189.4094 -189.4094c -104.6079,-0.0000 -189.4094,84.8015 -189.4094 189.4094"/></g><g stroke-linejoin="miter" stroke-opacity="1.0" fill-opacity="0.0" stroke="rgb(0,0,0)" stroke-width="1.3067270723253046" fill="rgb(0,0,0)" stroke-linecap="butt" stroke-miterlimit="10.0"><path d="M 550.5092,189.4094 c 0.0000,-30.3700 -24.6198,-54.9898 -54.9898 -54.9898c -30.3700,-0.0000 -54.9898,24.6198 -54.9898 54.9898"/></g><g stroke-linejoin="miter" stroke-opacity="1.0" fill-opacity="1.0" font-size="8.14663951120163px" stroke="rgb(0,0,0)" stroke-width="1.3067270723253046" fill="rgb(0,0,0)" stroke-linecap="butt" stroke-miterlimit="10.0"><text dominant-baseline="middle" transform="matrix(1.0000,0.0000,0.0000,1.0000,562.7291,200.0000)" stroke="none" text-anchor="middle">A</text></g><g stroke-linejoin="miter" stroke-opacity="1.0" fill-opacity="1.0" stroke="rgb(0,0,0)" stroke-width="1.3067270723253046" fill="rgb(192,47,29)" stroke-linecap="butt" stroke-miterlimit="10.0"><path d="M 566.8024,189.4094 c 0.0000,-2.2496 -1.8237,-4.0733 -4.0733 -4.0733c -2.2496,-0.0000 -4.0733,1.8237 -4.0733 4.0733c -0.0000,2.2496 1.8237,4.0733 4.0733 4.0733c 2.2496,0.0000 4.0733,-1.8237 4.0733 -4.0733Z"/></g><g stroke-linejoin="miter" stroke-opacity="1.0" fill-opacity="0.0" stroke="rgb(0,0,0)" stroke-width="1.3067270723253046" fill="rgb(0,0,0)" stroke-linecap="butt" stroke-miterlimit="10.0"><path d="M 554.5825,189.4094 h 4.0733 "/></g><g stroke-linejoin="miter" stroke-opacity="1.0" fill-opacity="1.0" font-size="8.14663951120163px" stroke="rgb(0,0,0)" stroke-width="1.3067270723253046" fill="rgb(0,0,0)" stroke-linecap="butt" stroke-miterlimit="10.0"><text dominant-baseline="middle" transform="matrix(1.0000,0.0000,0.0000,1.0000,550.5092,200.0000)" stroke="none" text-anchor="middle">A</text></g><g stroke-linejoin="miter" stroke-opacity="1.0" fill-opacity="1.0" stroke="rgb(0,0,0)" stroke-width="1.3067270723253046" fill="rgb(192,47,29)" stroke-linecap="butt" stroke-miterlimit="10.0"><path d="M 554.5825,189.4094 c 0.0000,-2.2496 -1.8237,-4.0733 -4.0733 -4.0733c -2.2496,-0.0000 -4.0733,1.8237 -4.0733 4.0733c -0.0000,2.2496 1.8237,4.0733 4.0733 4.0733c 2.2496,0.0000 4.0733,-1.8237 4.0733 -4.0733Z"/></g><g stroke-linejoin="miter" stroke-opacity="1.0" fill-opacity="0.0" stroke="rgb(0,0,0)" stroke-width="1.3067270723253046" fill="rgb(0,0,0)" stroke-linecap="butt" stroke-miterlimit="10.0"><path d="M 542.3625,189.4094 h 4.0733 "/></g><g stroke-linejoin="miter" stroke-opacity="1.0" fill-opacity="0.0" stroke="rgb(0,0,0)" stroke-width="1.3067270723253046" fill="rgb(0,0,0)" stroke-linecap="butt" stroke-miterlimit="10.0"><path d="M 538.2892,189.4094 c 0.0000,-10.1233 -8.2066,-18.3299 -18.3299 -18.3299c -10.1233,-0.0000 -18.3299,8.2066 -18.3299 18.3299"/></g><g stroke-linejoin="miter" stroke-opacity="1.0" fill-opacity="1.0" font-size="8.14663951120163px" stroke="rgb(0,0,0)" stroke-width="1.3067270723253046" fill="rgb(0,0,0)" stroke-linecap="butt" stroke-miterlimit="10.0"><text dominant-baseline="middle" transform="matrix(1.0000,0.0000,0.0000,1.0000,538.2892,200.0000)" stroke="none" text-anchor="middle">C</text></g><g stroke-linejoin="miter" stroke-opacity="1.0" fill-opacity="1.0" stroke="rgb(0,0,0)" stroke-width="1.3067270723253046" fill="rgb(130,147,86)" stroke-linecap="butt" stroke-miterlimit="10.0"><path d="M 542.3625,189.4094 c 0.0000,-2.2496 -1.8237,-4.0733 -4.0733 -4.0733c -2.2496,-0.0000 -4.0733,1.8237 -4.0733 4.0733c -0.0000,2.2496 1.8237,4.0733 4.0733 4.0733c 2.2496,0.0000 4.0733,-1.8237 4.0733 -4.0733Z"/></g><g stroke-linejoin="miter" stroke-opacity="1.0" fill-opacity="0.0" stroke="rgb(0,0,0)" stroke-width="1.3067270723253046" fill="rgb(0,0,0)" stroke-linecap="butt" stroke-miterlimit="10.0"><path d="M 530.1426,189.4094 h 4.0733 "/></g><g stroke-linejoin="miter" stroke-opacity="1.0" fill-opacity="0.0" stroke="rgb(0,0,0)" stroke-width="1.3067270723253046" fill="rgb(0,0,0)" stroke-linecap="butt" stroke-miterlimit="10.0"><path d="M 526.0692,189.4094 c 0.0000,-3.3744 -2.7355,-6.1100 -6.1100 -6.1100c -3.3744,-0.0000 -6.1100,2.7355 -6.1100 6.1100"/></g><g stroke-linejoin="miter" stroke-opacity="1.0" fill-opacity="1.0" font-size="8.14663951120163px" stroke="rgb(0,0,0)" stroke-width="1.3067270723253046" fill="rgb(0,0,0)" stroke-linecap="butt" stroke-miterlimit="10.0"><text dominant-baseline="middle" transform="matrix(1.0000,0.0000,0.0000,1.0000,526.0692,200.0000)" stroke="none" text-anchor="middle">C</text></g><g stroke-linejoin="miter" stroke-opacity="1.0" fill-opacity="1.0" stroke="rgb(0,0,0)" stroke-width="1.3067270723253046" fill="rgb(130,147,86)" stroke-linecap="butt" stroke-miterlimit="10.0"><path d="M 530.1426,189.4094 c 0.0000,-2.2496 -1.8237,-4.0733 -4.0733 -4.0733c -2.2496,-0.0000 -4.0733,1.8237 -4.0733 4.0733c -0.0000,2.2496 1.8237,4.0733 4.0733 4.0733c 2.2496,0.0000 4.0733,-1.8237 4.0733 -4.0733Z"/></g><g stroke-linejoin="miter" stroke-opacity="1.0" fill-opacity="0.0" stroke="rgb(0,0,0)" stroke-width="1.3067270723253046" fill="rgb(0,0,0)" stroke-linecap="butt" stroke-miterlimit="10.0"><path d="M 517.9226,189.4094 h 4.0733 "/></g><g stroke-linejoin="miter" stroke-opacity="1.0" fill-opacity="1.0" font-size="8.14663951120163px" stroke="rgb(0,0,0)" stroke-width="1.3067270723253046" fill="rgb(0,0,0)" stroke-linecap="butt" stroke-miterlimit="10.0"><text dominant-baseline="middle" transform="matrix(1.0000,0.0000,0.0000,1.0000,513.8493,200.0000)" stroke="none" text-anchor="middle">G</text></g><g stroke-linejoin="miter" stroke-opacity="1.0" fill-opacity="1.0" stroke="rgb(0,0,0)" stroke-width="1.3067270723253046" fill="rgb(16,120,150)" stroke-linecap="butt" stroke-miterlimit="10.0"><path d="M 517.9226,189.4094 c 0.0000,-2.2496 -1.8237,-4.0733 -4.0733 -4.0733c -2.2496,-0.0000 -4.0733,1.8237 -4.0733 4.0733c -0.0000,2.2496 1.8237,4.0733 4.0733 4.0733c 2.2496,0.0000 4.0733,-1.8237 4.0733 -4.0733Z"/></g><g stroke-linejoin="miter" stroke-opacity="1.0" fill-opacity="0.0" stroke="rgb(0,0,0)" stroke-width="1.3067270723253046" fill="rgb(0,0,0)" stroke-linecap="butt" stroke-miterlimit="10.0"><path d="M 505.7026,189.4094 h 4.0733 "/></g><g stroke-linejoin="miter" stroke-opacity="1.0" fill-opacity="1.0" font-size="8.14663951120163px" stroke="rgb(0,0,0)" stroke-width="1.3067270723253046" fill="rgb(0,0,0)" stroke-linecap="butt" stroke-miterlimit="10.0"><text dominant-baseline="middle" transform="matrix(1.0000,0.0000,0.0000,1.0000,501.6293,200.0000)" stroke="none" text-anchor="middle">G</text></g><g stroke-linejoin="miter" stroke-opacity="1.0" fill-opacity="1.0" stroke="rgb(0,0,0)" stroke-width="1.3067270723253046" fill="rgb(16,120,150)" stroke-linecap="butt" stroke-miterlimit="10.0"><path d="M 505.7026,189.4094 c 0.0000,-2.2496 -1.8237,-4.0733 -4.0733 -4.0733c -2.2496,-0.0000 -4.0733,1.8237 -4.0733 4.0733c -0.0000,2.2496 1.8237,4.0733 4.0733 4.0733c 2.2496,0.0000 4.0733,-1.8237 4.0733 -4.0733Z"/></g><g stroke-linejoin="miter" stroke-opacity="1.0" fill-opacity="0.0" stroke="rgb(0,0,0)" stroke-width="1.3067270723253046" fill="rgb(0,0,0)" stroke-linecap="butt" stroke-miterlimit="10.0"><path d="M 493.4827,189.4094 h 4.0733 "/></g><g stroke-linejoin="miter" stroke-opacity="1.0" fill-opacity="1.0" font-size="8.14663951120163px" stroke="rgb(0,0,0)" stroke-width="1.3067270723253046" fill="rgb(0,0,0)" stroke-linecap="butt" stroke-miterlimit="10.0"><text dominant-baseline="middle" transform="matrix(1.0000,0.0000,0.0000,1.0000,489.4094,200.0000)" stroke="none" text-anchor="middle">A</text></g><g stroke-linejoin="miter" stroke-opacity="1.0" fill-opacity="1.0" stroke="rgb(0,0,0)" stroke-width="1.3067270723253046" fill="rgb(192,47,29)" stroke-linecap="butt" stroke-miterlimit="10.0"><path d="M 493.4827,189.4094 c 0.0000,-2.2496 -1.8237,-4.0733 -4.0733 -4.0733c -2.2496,-0.0000 -4.0733,1.8237 -4.0733 4.0733c -0.0000,2.2496 1.8237,4.0733 4.0733 4.0733c 2.2496,0.0000 4.0733,-1.8237 4.0733 -4.0733Z"/></g><g stroke-linejoin="miter" stroke-opacity="1.0" fill-opacity="0.0" stroke="rgb(0,0,0)" stroke-width="1.3067270723253046" fill="rgb(0,0,0)" stroke-linecap="butt" stroke-miterlimit="10.0"><path d="M 481.2627,189.4094 h 4.0733 "/></g><g stroke-linejoin="miter" stroke-opacity="1.0" fill-opacity="1.0" font-size="8.14663951120163px" stroke="rgb(0,0,0)" stroke-width="1.3067270723253046" fill="rgb(0,0,0)" stroke-linecap="butt" stroke-miterlimit="10.0"><text dominant-baseline="middle" transform="matrix(1.0000,0.0000,0.0000,1.0000,477.1894,200.0000)" stroke="none" text-anchor="middle">A</text></g><g stroke-linejoin="miter" stroke-opacity="1.0" fill-opacity="1.0" stroke="rgb(0,0,0)" stroke-width="1.3067270723253046" fill="rgb(192,47,29)" stroke-linecap="butt" stroke-miterlimit="10.0"><path d="M 481.2627,189.4094 c 0.0000,-2.2496 -1.8237,-4.0733 -4.0733 -4.0733c -2.2496,-0.0000 -4.0733,1.8237 -4.0733 4.0733c -0.0000,2.2496 1.8237,4.0733 4.0733 4.0733c 2.2496,0.0000 4.0733,-1.8237 4.0733 -4.0733Z"/></g><g stroke-linejoin="miter" stroke-opacity="1.0" fill-opacity="0.0" stroke="rgb(0,0,0)" stroke-width="1.3067270723253046" fill="rgb(0,0,0)" stroke-linecap="butt" stroke-miterlimit="10.0"><path d="M 469.0428,189.4094 h 4.0733 "/></g><g stroke-linejoin="miter" stroke-opacity="1.0" fill-opacity="1.0" font-size="8.14663951120163px" stroke="rgb(0,0,0)" stroke-width="1.3067270723253046" fill="rgb(0,0,0)" stroke-linecap="butt" stroke-miterlimit="10.0"><text dominant-baseline="middle" transform="matrix(1.0000,0.0000,0.0000,1.0000,464.9695,200.0000)" stroke="none" text-anchor="middle">A</text></g><g stroke-linejoin="miter" stroke-opacity="1.0" fill-opacity="1.0" stroke="rgb(0,0,0)" stroke-width="1.3067270723253046" fill="rgb(192,47,29)" stroke-linecap="butt" stroke-miterlimit="10.0"><path d="M 469.0428,189.4094 c 0.0000,-2.2496 -1.8237,-4.0733 -4.0733 -4.0733c -2.2496,-0.0000 -4.0733,1.8237 -4.0733 4.0733c -0.0000,2.2496 1.8237,4.0733 4.0733 4.0733c 2.2496,0.0000 4.0733,-1.8237 4.0733 -4.0733Z"/></g><g stroke-linejoin="miter" stroke-opacity="1.0" fill-opacity="0.0" stroke="rgb(0,0,0)" stroke-width="1.3067270723253046" fill="rgb(0,0,0)" stroke-linecap="butt" stroke-miterlimit="10.0"><path d="M 456.8228,189.4094 h 4.0733 "/></g><g stroke-linejoin="miter" stroke-opacity="1.0" fill-opacity="1.0" font-size="8.14663951120163px" stroke="rgb(0,0,0)" stroke-width="1.3067270723253046" fill="rgb(0,0,0)" stroke-linecap="butt" stroke-miterlimit="10.0"><text dominant-baseline="middle" transform="matrix(1.0000,0.0000,0.0000,1.0000,452.7495,200.0000)" stroke="none" text-anchor="middle">A</text></g><g stroke-linejoin="miter" stroke-opacity="1.0" fill-opacity="1.0" stroke="rgb(0,0,0)" stroke-width="1.3067270723253046" fill="rgb(192,47,29)" stroke-linecap="butt" stroke-miterlimit="10.0"><path d="M 456.8228,189.4094 c 0.0000,-2.2496 -1.8237,-4.0733 -4.0733 -4.0733c -2.2496,-0.0000 -4.0733,1.8237 -4.0733 4.0733c -0.0000,2.2496 1.8237,4.0733 4.0733 4.0733c 2.2496,0.0000 4.0733,-1.8237 4.0733 -4.0733Z"/></g><g stroke-linejoin="miter" stroke-opacity="1.0" fill-opacity="0.0" stroke="rgb(0,0,0)" stroke-width="1.3067270723253046" fill="rgb(0,0,0)" stroke-linecap="butt" stroke-miterlimit="10.0"><path d="M 444.6029,189.4094 h 4.0733 "/></g><g stroke-linejoin="miter" stroke-opacity="1.0" fill-opacity="1.0" font-size="8.14663951120163px" stroke="rgb(0,0,0)" stroke-width="1.3067270723253046" fill="rgb(0,0,0)" stroke-linecap="butt" stroke-miterlimit="10.0"><text dominant-baseline="middle" transform="matrix(1.0000,0.0000,0.0000,1.0000,440.5295,200.0000)" stroke="none" text-anchor="middle">U</text></g><g stroke-linejoin="miter" stroke-opacity="1.0" fill-opacity="1.0" stroke="rgb(0,0,0)" stroke-width="1.3067270723253046" fill="rgb(242,109,33)" stroke-linecap="butt" stroke-miterlimit="10.0"><path d="M 444.6029,189.4094 c 0.0000,-2.2496 -1.8237,-4.0733 -4.0733 -4.0733c -2.2496,-0.0000 -4.0733,1.8237 -4.0733 4.0733c -0.0000,2.2496 1.8237,4.0733 4.0733 4.0733c 2.2496,0.0000 4.0733,-1.8237 4.0733 -4.0733Z"/></g><g stroke-linejoin="miter" stroke-opacity="1.0" fill-opacity="0.0" stroke="rgb(0,0,0)" stroke-width="1.3067270723253046" fill="rgb(0,0,0)" stroke-linecap="butt" stroke-miterlimit="10.0"><path d="M 432.3829,189.4094 h 4.0733 "/></g><g stroke-linejoin="miter" stroke-opacity="1.0" fill-opacity="1.0" font-size="8.14663951120163px" stroke="rgb(0,0,0)" stroke-width="1.3067270723253046" fill="rgb(0,0,0)" stroke-linecap="butt" stroke-miterlimit="10.0"><text dominant-baseline="middle" transform="matrix(1.0000,0.0000,0.0000,1.0000,428.3096,200.0000)" stroke="none" text-anchor="middle">U</text></g><g stroke-linejoin="miter" stroke-opacity="1.0" fill-opacity="1.0" stroke="rgb(0,0,0)" stroke-width="1.3067270723253046" fill="rgb(242,109,33)" stroke-linecap="butt" stroke-miterlimit="10.0"><path d="M 432.3829,189.4094 c 0.0000,-2.2496 -1.8237,-4.0733 -4.0733 -4.0733c -2.2496,-0.0000 -4.0733,1.8237 -4.0733 4.0733c -0.0000,2.2496 1.8237,4.0733 4.0733 4.0733c 2.2496,0.0000 4.0733,-1.8237 4.0733 -4.0733Z"/></g><g stroke-linejoin="miter" stroke-opacity="1.0" fill-opacity="0.0" stroke="rgb(0,0,0)" stroke-width="1.3067270723253046" fill="rgb(0,0,0)" stroke-linecap="butt" stroke-miterlimit="10.0"><path d="M 420.1629,189.4094 h 4.0733 "/></g><g stroke-linejoin="miter" stroke-opacity="1.0" fill-opacity="0.0" stroke="rgb(0,0,0)" stroke-width="1.3067270723253046" fill="rgb(0,0,0)" stroke-linecap="butt" stroke-miterlimit="10.0"><path d="M 416.0896,189.4094 c 0.0000,-97.8590 -79.3304,-177.1894 -177.1894 -177.1894c -97.8590,-0.0000 -177.1894,79.3304 -177.1894 177.1894"/></g><g stroke-linejoin="miter" stroke-opacity="1.0" fill-opacity="1.0" font-size="8.14663951120163px" stroke="rgb(0,0,0)" stroke-width="1.3067270723253046" fill="rgb(0,0,0)" stroke-linecap="butt" stroke-miterlimit="10.0"><text dominant-baseline="middle" transform="matrix(1.0000,0.0000,0.0000,1.0000,416.0896,200.0000)" stroke="none" text-anchor="middle">U</text></g><g stroke-linejoin="miter" stroke-opacity="1.0" fill-opacity="1.0" stroke="rgb(0,0,0)" stroke-width="1.3067270723253046" fill="rgb(242,109,33)" stroke-linecap="butt" stroke-miterlimit="10.0"><path d="M 420.1629,189.4094 c 0.0000,-2.2496 -1.8237,-4.0733 -4.0733 -4.0733c -2.2496,-0.0000 -4.0733,1.8237 -4.0733 4.0733c -0.0000,2.2496 1.8237,4.0733 4.0733 4.0733c 2.2496,0.0000 4.0733,-1.8237 4.0733 -4.0733Z"/></g><g stroke-linejoin="miter" stroke-opacity="1.0" fill-opacity="0.0" stroke="rgb(0,0,0)" stroke-width="1.3067270723253046" fill="rgb(0,0,0)" stroke-linecap="butt" stroke-miterlimit="10.0"><path d="M 407.9430,189.4094 h 4.0733 "/></g><g stroke-linejoin="miter" stroke-opacity="1.0" fill-opacity="0.0" stroke="rgb(0,0,0)" stroke-width="1.3067270723253046" fill="rgb(0,0,0)" stroke-linecap="butt" stroke-miterlimit="10.0"><path d="M 403.8697,189.4094 c 0.0000,-84.3612 -68.3883,-152.7495 -152.7495 -152.7495c -84.3612,-0.0000 -152.7495,68.3883 -152.7495 152.7495"/></g><g stroke-linejoin="miter" stroke-opacity="1.0" fill-opacity="1.0" font-size="8.14663951120163px" stroke="rgb(0,0,0)" stroke-width="1.3067270723253046" fill="rgb(0,0,0)" stroke-linecap="butt" stroke-miterlimit="10.0"><text dominant-baseline="middle" transform="matrix(1.0000,0.0000,0.0000,1.0000,403.8697,200.0000)" stroke="none" text-anchor="middle">U</text></g><g stroke-linejoin="miter" stroke-opacity="1.0" fill-opacity="1.0" stroke="rgb(0,0,0)" stroke-width="1.3067270723253046" fill="rgb(242,109,33)" stroke-linecap="butt" stroke-miterlimit="10.0"><path d="M 407.9430,189.4094 c 0.0000,-2.2496 -1.8237,-4.0733 -4.0733 -4.0733c -2.2496,-0.0000 -4.0733,1.8237 -4.0733 4.0733c -0.0000,2.2496 1.8237,4.0733 4.0733 4.0733c 2.2496,0.0000 4.0733,-1.8237 4.0733 -4.0733Z"/></g><g stroke-linejoin="miter" stroke-opacity="1.0" fill-opacity="0.0" stroke="rgb(0,0,0)" stroke-width="1.3067270723253046" fill="rgb(0,0,0)" stroke-linecap="butt" stroke-miterlimit="10.0"><path d="M 395.7230,189.4094 h 4.0733 "/></g><g stroke-linejoin="miter" stroke-opacity="1.0" fill-opacity="0.0" stroke="rgb(0,0,0)" stroke-width="1.3067270723253046" fill="rgb(0,0,0)" stroke-linecap="butt" stroke-miterlimit="10.0"><path d="M 391.6497,189.4094 c 0.0000,-74.2379 -60.1817,-134.4196 -134.4196 -134.4196c -74.2379,-0.0000 -134.4196,60.1817 -134.4196 134.4196"/></g><g stroke-linejoin="miter" stroke-opacity="1.0" fill-opacity="1.0" font-size="8.14663951120163px" stroke="rgb(0,0,0)" stroke-width="1.3067270723253046" fill="rgb(0,0,0)" stroke-linecap="butt" stroke-miterlimit="10.0"><text dominant-baseline="middle" transform="matrix(1.0000,0.0000,0.0000,1.0000,391.6497,200.0000)" stroke="none" text-anchor="middle">C</text></g><g stroke-linejoin="miter" stroke-opacity="1.0" fill-opacity="1.0" stroke="rgb(0,0,0)" stroke-width="1.3067270723253046" fill="rgb(130,147,86)" stroke-linecap="butt" stroke-miterlimit="10.0"><path d="M 395.7230,189.4094 c 0.0000,-2.2496 -1.8237,-4.0733 -4.0733 -4.0733c -2.2496,-0.0000 -4.0733,1.8237 -4.0733 4.0733c -0.0000,2.2496 1.8237,4.0733 4.0733 4.0733c 2.2496,0.0000 4.0733,-1.8237 4.0733 -4.0733Z"/></g><g stroke-linejoin="miter" stroke-opacity="1.0" fill-opacity="0.0" stroke="rgb(0,0,0)" stroke-width="1.3067270723253046" fill="rgb(0,0,0)" stroke-linecap="butt" stroke-miterlimit="10.0"><path d="M 383.5031,189.4094 h 4.0733 "/></g><g stroke-linejoin="miter" stroke-opacity="1.0" fill-opacity="0.0" stroke="rgb(0,0,0)" stroke-width="1.3067270723253046" fill="rgb(0,0,0)" stroke-linecap="butt" stroke-miterlimit="10.0"><path d="M 208.3503,189.4094 c 0.0000,-13.4978 -10.9421,-24.4399 -24.4399 -24.4399c -13.4978,-0.0000 -24.4399,10.9421 -24.4399 24.4399"/></g><g stroke-linejoin="miter" stroke-opacity="1.0" fill-opacity="0.0" stroke="rgb(0,0,0)" stroke-width="1.3067270723253046" fill="rgb(0,0,0)" stroke-linecap="butt" stroke-miterlimit="10.0"><path d="M 367.2098,189.4094 c 0.0000,-37.1189 -30.0908,-67.2098 -67.2098 -67.2098c -37.1189,-0.0000 -67.2098,30.0908 -67.2098 67.2098"/></g><g stroke-linejoin="miter" stroke-opacity="1.0" fill-opacity="1.0" font-size="8.14663951120163px" stroke="rgb(0,0,0)" stroke-width="1.3067270723253046" fill="rgb(0,0,0)" stroke-linecap="butt" stroke-miterlimit="10.0"><text dominant-baseline="middle" transform="matrix(1.0000,0.0000,0.0000,1.0000,379.4297,200.0000)" stroke="none" text-anchor="middle">G</text></g><g stroke-linejoin="miter" stroke-opacity="1.0" fill-opacity="1.0" stroke="rgb(0,0,0)" stroke-width="1.3067270723253046" fill="rgb(16,120,150)" stroke-linecap="butt" stroke-miterlimit="10.0"><path d="M 383.5031,189.4094 c 0.0000,-2.2496 -1.8237,-4.0733 -4.0733 -4.0733c -2.2496,-0.0000 -4.0733,1.8237 -4.0733 4.0733c -0.0000,2.2496 1.8237,4.0733 4.0733 4.0733c 2.2496,0.0000 4.0733,-1.8237 4.0733 -4.0733Z"/></g><g stroke-linejoin="miter" stroke-opacity="1.0" fill-opacity="0.0" stroke="rgb(0,0,0)" stroke-width="1.3067270723253046" fill="rgb(0,0,0)" stroke-linecap="butt" stroke-miterlimit="10.0"><path d="M 371.2831,189.4094 h 4.0733 "/></g><g stroke-linejoin="miter" stroke-opacity="1.0" fill-opacity="1.0" font-size="8.14663951120163px" stroke="rgb(0,0,0)" stroke-width="1.3067270723253046" fill="rgb(0,0,0)" stroke-linecap="butt" stroke-miterlimit="10.0"><text dominant-baseline="middle" transform="matrix(1.0000,0.0000,0.0000,1.0000,367.2098,200.0000)" stroke="none" text-anchor="middle">U</text></g><g stroke-linejoin="miter" stroke-opacity="1.0" fill-opacity="1.0" stroke="rgb(0,0,0)" stroke-width="1.3067270723253046" fill="rgb(242,109,33)" stroke-linecap="butt" stroke-miterlimit="10.0"><path d="M 371.2831,189.4094 c 0.0000,-2.2496 -1.8237,-4.0733 -4.0733 -4.0733c -2.2496,-0.0000 -4.0733,1.8237 -4.0733 4.0733c -0.0000,2.2496 1.8237,4.0733 4.0733 4.0733c 2.2496,0.0000 4.0733,-1.8237 4.0733 -4.0733Z"/></g><g stroke-linejoin="miter" stroke-opacity="1.0" fill-opacity="0.0" stroke="rgb(0,0,0)" stroke-width="1.3067270723253046" fill="rgb(0,0,0)" stroke-linecap="butt" stroke-miterlimit="10.0"><path d="M 359.0631,189.4094 h 4.0733 "/></g><g stroke-linejoin="miter" stroke-opacity="1.0" fill-opacity="0.0" stroke="rgb(0,0,0)" stroke-width="1.3067270723253046" fill="rgb(0,0,0)" stroke-linecap="butt" stroke-miterlimit="10.0"><path d="M 354.9898,189.4094 c 0.0000,-26.9956 -21.8842,-48.8798 -48.8798 -48.8798c -26.9956,-0.0000 -48.8798,21.8842 -48.8798 48.8798"/></g><g stroke-linejoin="miter" stroke-opacity="1.0" fill-opacity="1.0" font-size="8.14663951120163px" stroke="rgb(0,0,0)" stroke-width="1.3067270723253046" fill="rgb(0,0,0)" stroke-linecap="butt" stroke-miterlimit="10.0"><text dominant-baseline="middle" transform="matrix(1.0000,0.0000,0.0000,1.0000,354.9898,200.0000)" stroke="none" text-anchor="middle">U</text></g><g stroke-linejoin="miter" stroke-opacity="1.0" fill-opacity="1.0" stroke="rgb(0,0,0)" stroke-width="1.3067270723253046" fill="rgb(242,109,33)" stroke-linecap="butt" stroke-miterlimit="10.0"><path d="M 359.0631,189.4094 c 0.0000,-2.2496 -1.8237,-4.0733 -4.0733 -4.0733c -2.2496,-0.0000 -4.0733,1.8237 -4.0733 4.0733c -0.0000,2.2496 1.8237,4.0733 4.0733 4.0733c 2.2496,0.0000 4.0733,-1.8237 4.0733 -4.0733Z"/></g><g stroke-linejoin="miter" stroke-opacity="1.0" fill-opacity="0.0" stroke="rgb(0,0,0)" stroke-width="1.3067270723253046" fill="rgb(0,0,0)" stroke-linecap="butt" stroke-miterlimit="10.0"><path d="M 346.8432,189.4094 h 4.0733 "/></g><g stroke-linejoin="miter" stroke-opacity="1.0" fill-opacity="0.0" stroke="rgb(0,0,0)" stroke-width="1.3067270723253046" fill="rgb(0,0,0)" stroke-linecap="butt" stroke-miterlimit="10.0"><path d="M 281.6701,189.4094 c 0.0000,-3.3744 -2.7355,-6.1100 -6.1100 -6.1100c -3.3744,-0.0000 -6.1100,2.7355 -6.1100 6.1100"/></g><g stroke-linejoin="miter" stroke-opacity="1.0" fill-opacity="0.0" stroke="rgb(0,0,0)" stroke-width="1.3067270723253046" fill="rgb(0,0,0)" stroke-linecap="butt" stroke-miterlimit="10.0"><path d="M 342.7699,189.4094 c 0.0000,-3.3744 -2.7355,-6.1100 -6.1100 -6.1100c -3.3744,-0.0000 -6.1100,2.7355 -6.1100 6.1100"/></g><g stroke-linejoin="miter" stroke-opacity="1.0" fill-opacity="1.0" font-size="8.14663951120163px" stroke="rgb(0,0,0)" stroke-width="1.3067270723253046" fill="rgb(0,0,0)" stroke-linecap="butt" stroke-miterlimit="10.0"><text dominant-baseline="middle" transform="matrix(1.0000,0.0000,0.0000,1.0000,342.7699,200.0000)" stroke="none" text-anchor="middle">U</text></g><g stroke-linejoin="miter" stroke-opacity="1.0" fill-opacity="1.0" stroke="rgb(0,0,0)" stroke-width="1.3067270723253046" fill="rgb(242,109,33)" stroke-linecap="butt" stroke-miterlimit="10.0"><path d="M 346.8432,189.4094 c 0.0000,-2.2496 -1.8237,-4.0733 -4.0733 -4.0733c -2.2496,-0.0000 -4.0733,1.8237 -4.0733 4.0733c -0.0000,2.2496 1.8237,4.0733 4.0733 4.0733c 2.2496,0.0000 4.0733,-1.8237 4.0733 -4.0733Z"/></g><g stroke-linejoin="miter" stroke-opacity="1.0" fill-opacity="0.0" stroke="rgb(0,0,0)" stroke-width="1.3067270723253046" fill="rgb(0,0,0)" stroke-linecap="butt" stroke-miterlimit="10.0"><path d="M 334.6232,189.4094 h 4.0733 "/></g><g stroke-linejoin="miter" stroke-opacity="1.0" fill-opacity="1.0" font-size="8.14663951120163px" stroke="rgb(0,0,0)" stroke-width="1.3067270723253046" fill="rgb(0,0,0)" stroke-linecap="butt" stroke-miterlimit="10.0"><text dominant-baseline="middle" transform="matrix(1.0000,0.0000,0.0000,1.0000,330.5499,200.0000)" stroke="none" text-anchor="middle">A</text></g><g stroke-linejoin="miter" stroke-opacity="1.0" fill-opacity="1.0" stroke="rgb(0,0,0)" stroke-width="1.3067270723253046" fill="rgb(192,47,29)" stroke-linecap="butt" stroke-miterlimit="10.0"><path d="M 334.6232,189.4094 c 0.0000,-2.2496 -1.8237,-4.0733 -4.0733 -4.0733c -2.2496,-0.0000 -4.0733,1.8237 -4.0733 4.0733c -0.0000,2.2496 1.8237,4.0733 4.0733 4.0733c 2.2496,0.0000 4.0733,-1.8237 4.0733 -4.0733Z"/></g><g stroke-linejoin="miter" stroke-opacity="1.0" fill-opacity="0.0" stroke="rgb(0,0,0)" stroke-width="1.3067270723253046" fill="rgb(0,0,0)" stroke-linecap="butt" stroke-miterlimit="10.0"><path d="M 322.4033,189.4094 h 4.0733 "/></g><g stroke-linejoin="miter" stroke-opacity="1.0" fill-opacity="1.0" font-size="8.14663951120163px" stroke="rgb(0,0,0)" stroke-width="1.3067270723253046" fill="rgb(0,0,0)" stroke-linecap="butt" stroke-miterlimit="10.0"><text dominant-baseline="middle" transform="matrix(1.0000,0.0000,0.0000,1.0000,318.3299,200.0000)" stroke="none" text-anchor="middle">A</text></g><g stroke-linejoin="miter" stroke-opacity="1.0" fill-opacity="1.0" stroke="rgb(0,0,0)" stroke-width="1.3067270723253046" fill="rgb(192,47,29)" stroke-linecap="butt" stroke-miterlimit="10.0"><path d="M 322.4033,189.4094 c 0.0000,-2.2496 -1.8237,-4.0733 -4.0733 -4.0733c -2.2496,-0.0000 -4.0733,1.8237 -4.0733 4.0733c -0.0000,2.2496 1.8237,4.0733 4.0733 4.0733c 2.2496,0.0000 4.0733,-1.8237 4.0733 -4.0733Z"/></g><g stroke-linejoin="miter" stroke-opacity="1.0" fill-opacity="0.0" stroke="rgb(0,0,0)" stroke-width="1.3067270723253046" fill="rgb(0,0,0)" stroke-linecap="butt" stroke-miterlimit="10.0"><path d="M 310.1833,189.4094 h 4.0733 "/></g><g stroke-linejoin="miter" stroke-opacity="1.0" fill-opacity="1.0" font-size="8.14663951120163px" stroke="rgb(0,0,0)" stroke-width="1.3067270723253046" fill="rgb(0,0,0)" stroke-linecap="butt" stroke-miterlimit="10.0"><text dominant-baseline="middle" transform="matrix(1.0000,0.0000,0.0000,1.0000,306.1100,200.0000)" stroke="none" text-anchor="middle">C</text></g><g stroke-linejoin="miter" stroke-opacity="1.0" fill-opacity="1.0" stroke="rgb(0,0,0)" stroke-width="1.3067270723253046" fill="rgb(130,147,86)" stroke-linecap="butt" stroke-miterlimit="10.0"><path d="M 310.1833,189.4094 c 0.0000,-2.2496 -1.8237,-4.0733 -4.0733 -4.0733c -2.2496,-0.0000 -4.0733,1.8237 -4.0733 4.0733c -0.0000,2.2496 1.8237,4.0733 4.0733 4.0733c 2.2496,0.0000 4.0733,-1.8237 4.0733 -4.0733Z"/></g><g stroke-linejoin="miter" stroke-opacity="1.0" fill-opacity="0.0" stroke="rgb(0,0,0)" stroke-width="1.3067270723253046" fill="rgb(0,0,0)" stroke-linecap="butt" stroke-miterlimit="10.0"><path d="M 297.9633,189.4094 h 4.0733 "/></g><g stroke-linejoin="miter" stroke-opacity="1.0" fill-opacity="1.0" font-size="8.14663951120163px" stroke="rgb(0,0,0)" stroke-width="1.3067270723253046" fill="rgb(0,0,0)" stroke-linecap="butt" stroke-miterlimit="10.0"><text dominant-baseline="middle" transform="matrix(1.0000,0.0000,0.0000,1.0000,293.8900,200.0000)" stroke="none" text-anchor="middle">C</text></g><g stroke-linejoin="miter" stroke-opacity="1.0" fill-opacity="1.0" stroke="rgb(0,0,0)" stroke-width="1.3067270723253046" fill="rgb(130,147,86)" stroke-linecap="butt" stroke-miterlimit="10.0"><path d="M 297.9633,189.4094 c 0.0000,-2.2496 -1.8237,-4.0733 -4.0733 -4.0733c -2.2496,-0.0000 -4.0733,1.8237 -4.0733 4.0733c -0.0000,2.2496 1.8237,4.0733 4.0733 4.0733c 2.2496,0.0000 4.0733,-1.8237 4.0733 -4.0733Z"/></g><g stroke-linejoin="miter" stroke-opacity="1.0" fill-opacity="0.0" stroke="rgb(0,0,0)" stroke-width="1.3067270723253046" fill="rgb(0,0,0)" stroke-linecap="butt" stroke-miterlimit="10.0"><path d="M 285.7434,189.4094 h 4.0733 "/></g><g stroke-linejoin="miter" stroke-opacity="1.0" fill-opacity="1.0" font-size="8.14663951120163px" stroke="rgb(0,0,0)" stroke-width="1.3067270723253046" fill="rgb(0,0,0)" stroke-linecap="butt" stroke-miterlimit="10.0"><text dominant-baseline="middle" transform="matrix(1.0000,0.0000,0.0000,1.0000,281.6701,200.0000)" stroke="none" text-anchor="middle">C</text></g><g stroke-linejoin="miter" stroke-opacity="1.0" fill-opacity="1.0" stroke="rgb(0,0,0)" stroke-width="1.3067270723253046" fill="rgb(130,147,86)" stroke-linecap="butt" stroke-miterlimit="10.0"><path d="M 285.7434,189.4094 c 0.0000,-2.2496 -1.8237,-4.0733 -4.0733 -4.0733c -2.2496,-0.0000 -4.0733,1.8237 -4.0733 4.0733c -0.0000,2.2496 1.8237,4.0733 4.0733 4.0733c 2.2496,0.0000 4.0733,-1.8237 4.0733 -4.0733Z"/></g><g stroke-linejoin="miter" stroke-opacity="1.0" fill-opacity="0.0" stroke="rgb(0,0,0)" stroke-width="1.3067270723253046" fill="rgb(0,0,0)" stroke-linecap="butt" stroke-miterlimit="10.0"><path d="M 273.5234,189.4094 h 4.0733 "/></g><g stroke-linejoin="miter" stroke-opacity="1.0" fill-opacity="1.0" font-size="8.14663951120163px" stroke="rgb(0,0,0)" stroke-width="1.3067270723253046" fill="rgb(0,0,0)" stroke-linecap="butt" stroke-miterlimit="10.0"><text dominant-baseline="middle" transform="matrix(1.0000,0.0000,0.0000,1.0000,269.4501,200.0000)" stroke="none" text-anchor="middle">G</text></g><g stroke-linejoin="miter" stroke-opacity="1.0" fill-opacity="1.0" stroke="rgb(0,0,0)" stroke-width="1.3067270723253046" fill="rgb(16,120,150)" stroke-linecap="butt" stroke-miterlimit="10.0"><path d="M 273.5234,189.4094 c 0.0000,-2.2496 -1.8237,-4.0733 -4.0733 -4.0733c -2.2496,-0.0000 -4.0733,1.8237 -4.0733 4.0733c -0.0000,2.2496 1.8237,4.0733 4.0733 4.0733c 2.2496,0.0000 4.0733,-1.8237 4.0733 -4.0733Z"/></g><g stroke-linejoin="miter" stroke-opacity="1.0" fill-opacity="0.0" stroke="rgb(0,0,0)" stroke-width="1.3067270723253046" fill="rgb(0,0,0)" stroke-linecap="butt" stroke-miterlimit="10.0"><path d="M 261.3035,189.4094 h 4.0733 "/></g><g stroke-linejoin="miter" stroke-opacity="1.0" fill-opacity="1.0" font-size="8.14663951120163px" stroke="rgb(0,0,0)" stroke-width="1.3067270723253046" fill="rgb(0,0,0)" stroke-linecap="butt" stroke-miterlimit="10.0"><text dominant-baseline="middle" transform="matrix(1.0000,0.0000,0.0000,1.0000,257.2301,200.0000)" stroke="none" text-anchor="middle">A</text></g><g stroke-linejoin="miter" stroke-opacity="1.0" fill-opacity="1.0" stroke="rgb(0,0,0)" stroke-width="1.3067270723253046" fill="rgb(192,47,29)" stroke-linecap="butt" stroke-miterlimit="10.0"><path d="M 261.3035,189.4094 c 0.0000,-2.2496 -1.8237,-4.0733 -4.0733 -4.0733c -2.2496,-0.0000 -4.0733,1.8237 -4.0733 4.0733c -0.0000,2.2496 1.8237,4.0733 4.0733 4.0733c 2.2496,0.0000 4.0733,-1.8237 4.0733 -4.0733Z"/></g><g stroke-linejoin="miter" stroke-opacity="1.0" fill-opacity="0.0" stroke="rgb(0,0,0)" stroke-width="1.3067270723253046" fill="rgb(0,0,0)" stroke-linecap="butt" stroke-miterlimit="10.0"><path d="M 249.0835,189.4094 h 4.0733 "/></g><g stroke-linejoin="miter" stroke-opacity="1.0" fill-opacity="1.0" font-size="8.14663951120163px" stroke="rgb(0,0,0)" stroke-width="1.3067270723253046" fill="rgb(0,0,0)" stroke-linecap="butt" stroke-miterlimit="10.0"><text dominant-baseline="middle" transform="matrix(1.0000,0.0000,0.0000,1.0000,245.0102,200.0000)" stroke="none" text-anchor="middle">A</text></g><g stroke-linejoin="miter" stroke-opacity="1.0" fill-opacity="1.0" stroke="rgb(0,0,0)" stroke-width="1.3067270723253046" fill="rgb(192,47,29)" stroke-linecap="butt" stroke-miterlimit="10.0"><path d="M 249.0835,189.4094 c 0.0000,-2.2496 -1.8237,-4.0733 -4.0733 -4.0733c -2.2496,-0.0000 -4.0733,1.8237 -4.0733 4.0733c -0.0000,2.2496 1.8237,4.0733 4.0733 4.0733c 2.2496,0.0000 4.0733,-1.8237 4.0733 -4.0733Z"/></g><g stroke-linejoin="miter" stroke-opacity="1.0" fill-opacity="0.0" stroke="rgb(0,0,0)" stroke-width="1.3067270723253046" fill="rgb(0,0,0)" stroke-linecap="butt" stroke-miterlimit="10.0"><path d="M 236.8635,189.4094 h 4.0733 "/></g><g stroke-linejoin="miter" stroke-opacity="1.0" fill-opacity="1.0" font-size="8.14663951120163px" stroke="rgb(0,0,0)" stroke-width="1.3067270723253046" fill="rgb(0,0,0)" stroke-linecap="butt" stroke-miterlimit="10.0"><text dominant-baseline="middle" transform="matrix(1.0000,0.0000,0.0000,1.0000,232.7902,200.0000)" stroke="none" text-anchor="middle">A</text></g><g stroke-linejoin="miter" stroke-opacity="1.0" fill-opacity="1.0" stroke="rgb(0,0,0)" stroke-width="1.3067270723253046" fill="rgb(192,47,29)" stroke-linecap="butt" stroke-miterlimit="10.0"><path d="M 236.8635,189.4094 c 0.0000,-2.2496 -1.8237,-4.0733 -4.0733 -4.0733c -2.2496,-0.0000 -4.0733,1.8237 -4.0733 4.0733c -0.0000,2.2496 1.8237,4.0733 4.0733 4.0733c 2.2496,0.0000 4.0733,-1.8237 4.0733 -4.0733Z"/></g><g stroke-linejoin="miter" stroke-opacity="1.0" fill-opacity="0.0" stroke="rgb(0,0,0)" stroke-width="1.3067270723253046" fill="rgb(0,0,0)" stroke-linecap="butt" stroke-miterlimit="10.0"><path d="M 224.6436,189.4094 h 4.0733 "/></g><g stroke-linejoin="miter" stroke-opacity="1.0" fill-opacity="1.0" font-size="8.14663951120163px" stroke="rgb(0,0,0)" stroke-width="1.3067270723253046" fill="rgb(0,0,0)" stroke-linecap="butt" stroke-miterlimit="10.0"><text dominant-baseline="middle" transform="matrix(1.0000,0.0000,0.0000,1.0000,220.5703,200.0000)" stroke="none" text-anchor="middle">C</text></g><g stroke-linejoin="miter" stroke-opacity="1.0" fill-opacity="1.0" stroke="rgb(0,0,0)" stroke-width="1.3067270723253046" fill="rgb(130,147,86)" stroke-linecap="butt" stroke-miterlimit="10.0"><path d="M 224.6436,189.4094 c 0.0000,-2.2496 -1.8237,-4.0733 -4.0733 -4.0733c -2.2496,-0.0000 -4.0733,1.8237 -4.0733 4.0733c -0.0000,2.2496 1.8237,4.0733 4.0733 4.0733c 2.2496,0.0000 4.0733,-1.8237 4.0733 -4.0733Z"/></g><g stroke-linejoin="miter" stroke-opacity="1.0" fill-opacity="0.0" stroke="rgb(0,0,0)" stroke-width="1.3067270723253046" fill="rgb(0,0,0)" stroke-linecap="butt" stroke-miterlimit="10.0"><path d="M 212.4236,189.4094 h 4.0733 "/></g><g stroke-linejoin="miter" stroke-opacity="1.0" fill-opacity="1.0" font-size="8.14663951120163px" stroke="rgb(0,0,0)" stroke-width="1.3067270723253046" fill="rgb(0,0,0)" stroke-linecap="butt" stroke-miterlimit="10.0"><text dominant-baseline="middle" transform="matrix(1.0000,0.0000,0.0000,1.0000,208.3503,200.0000)" stroke="none" text-anchor="middle">C</text></g><g stroke-linejoin="miter" stroke-opacity="1.0" fill-opacity="1.0" stroke="rgb(0,0,0)" stroke-width="1.3067270723253046" fill="rgb(130,147,86)" stroke-linecap="butt" stroke-miterlimit="10.0"><path d="M 212.4236,189.4094 c 0.0000,-2.2496 -1.8237,-4.0733 -4.0733 -4.0733c -2.2496,-0.0000 -4.0733,1.8237 -4.0733 4.0733c -0.0000,2.2496 1.8237,4.0733 4.0733 4.0733c 2.2496,0.0000 4.0733,-1.8237 4.0733 -4.0733Z"/></g><g stroke-linejoin="miter" stroke-opacity="1.0" fill-opacity="0.0" stroke="rgb(0,0,0)" stroke-width="1.3067270723253046" fill="rgb(0,0,0)" stroke-linecap="butt" stroke-miterlimit="10.0"><path d="M 200.2037,189.4094 h 4.0733 "/></g><g stroke-linejoin="miter" stroke-opacity="1.0" fill-opacity="1.0" font-size="8.14663951120163px" stroke="rgb(0,0,0)" stroke-width="1.3067270723253046" fill="rgb(0,0,0)" stroke-linecap="butt" stroke-miterlimit="10.0"><text dominant-baseline="middle" transform="matrix(1.0000,0.0000,0.0000,1.0000,196.1303,200.0000)" stroke="none" text-anchor="middle">A</text></g><g stroke-linejoin="miter" stroke-opacity="1.0" fill-opacity="1.0" stroke="rgb(0,0,0)" stroke-width="1.3067270723253046" fill="rgb(192,47,29)" stroke-linecap="butt" stroke-miterlimit="10.0"><path d="M 200.2037,189.4094 c 0.0000,-2.2496 -1.8237,-4.0733 -4.0733 -4.0733c -2.2496,-0.0000 -4.0733,1.8237 -4.0733 4.0733c -0.0000,2.2496 1.8237,4.0733 4.0733 4.0733c 2.2496,0.0000 4.0733,-1.8237 4.0733 -4.0733Z"/></g><g stroke-linejoin="miter" stroke-opacity="1.0" fill-opacity="0.0" stroke="rgb(0,0,0)" stroke-width="1.3067270723253046" fill="rgb(0,0,0)" stroke-linecap="butt" stroke-miterlimit="10.0"><path d="M 187.9837,189.4094 h 4.0733 "/></g><g stroke-linejoin="miter" stroke-opacity="1.0" fill-opacity="1.0" font-size="8.14663951120163px" stroke="rgb(0,0,0)" stroke-width="1.3067270723253046" fill="rgb(0,0,0)" stroke-linecap="butt" stroke-miterlimit="10.0"><text dominant-baseline="middle" transform="matrix(1.0000,0.0000,0.0000,1.0000,183.9104,200.0000)" stroke="none" text-anchor="middle">A</text></g><g stroke-linejoin="miter" stroke-opacity="1.0" fill-opacity="1.0" stroke="rgb(0,0,0)" stroke-width="1.3067270723253046" fill="rgb(192,47,29)" stroke-linecap="butt" stroke-miterlimit="10.0"><path d="M 187.9837,189.4094 c 0.0000,-2.2496 -1.8237,-4.0733 -4.0733 -4.0733c -2.2496,-0.0000 -4.0733,1.8237 -4.0733 4.0733c -0.0000,2.2496 1.8237,4.0733 4.0733 4.0733c 2.2496,0.0000 4.0733,-1.8237 4.0733 -4.0733Z"/></g><g stroke-linejoin="miter" stroke-opacity="1.0" fill-opacity="0.0" stroke="rgb(0,0,0)" stroke-width="1.3067270723253046" fill="rgb(0,0,0)" stroke-linecap="butt" stroke-miterlimit="10.0"><path d="M 175.7637,189.4094 h 4.0733 "/></g><g stroke-linejoin="miter" stroke-opacity="1.0" fill-opacity="1.0" font-size="8.14663951120163px" stroke="rgb(0,0,0)" stroke-width="1.3067270723253046" fill="rgb(0,0,0)" stroke-linecap="butt" stroke-miterlimit="10.0"><text dominant-baseline="middle" transform="matrix(1.0000,0.0000,0.0000,1.0000,171.6904,200.0000)" stroke="none" text-anchor="middle">A</text></g><g stroke-linejoin="miter" stroke-opacity="1.0" fill-opacity="1.0" stroke="rgb(0,0,0)" stroke-width="1.3067270723253046" fill="rgb(192,47,29)" stroke-linecap="butt" stroke-miterlimit="10.0"><path d="M 175.7637,189.4094 c 0.0000,-2.2496 -1.8237,-4.0733 -4.0733 -4.0733c -2.2496,-0.0000 -4.0733,1.8237 -4.0733 4.0733c -0.0000,2.2496 1.8237,4.0733 4.0733 4.0733c 2.2496,0.0000 4.0733,-1.8237 4.0733 -4.0733Z"/></g><g stroke-linejoin="miter" stroke-opacity="1.0" fill-opacity="0.0" stroke="rgb(0,0,0)" stroke-width="1.3067270723253046" fill="rgb(0,0,0)" stroke-linecap="butt" stroke-miterlimit="10.0"><path d="M 163.5438,189.4094 h 4.0733 "/></g><g stroke-linejoin="miter" stroke-opacity="1.0" fill-opacity="1.0" font-size="8.14663951120163px" stroke="rgb(0,0,0)" stroke-width="1.3067270723253046" fill="rgb(0,0,0)" stroke-linecap="butt" stroke-miterlimit="10.0"><text dominant-baseline="middle" transform="matrix(1.0000,0.0000,0.0000,1.0000,159.4705,200.0000)" stroke="none" text-anchor="middle">G</text></g><g stroke-linejoin="miter" stroke-opacity="1.0" fill-opacity="1.0" stroke="rgb(0,0,0)" stroke-width="1.3067270723253046" fill="rgb(16,120,150)" stroke-linecap="butt" stroke-miterlimit="10.0"><path d="M 163.5438,189.4094 c 0.0000,-2.2496 -1.8237,-4.0733 -4.0733 -4.0733c -2.2496,-0.0000 -4.0733,1.8237 -4.0733 4.0733c -0.0000,2.2496 1.8237,4.0733 4.0733 4.0733c 2.2496,0.0000 4.0733,-1.8237 4.0733 -4.0733Z"/></g><g stroke-linejoin="miter" stroke-opacity="1.0" fill-opacity="0.0" stroke="rgb(0,0,0)" stroke-width="1.3067270723253046" fill="rgb(0,0,0)" stroke-linecap="butt" stroke-miterlimit="10.0"><path d="M 151.3238,189.4094 h 4.0733 "/></g><g stroke-linejoin="miter" stroke-opacity="1.0" fill-opacity="1.0" font-size="8.14663951120163px" stroke="rgb(0,0,0)" stroke-width="1.3067270723253046" fill="rgb(0,0,0)" stroke-linecap="butt" stroke-miterlimit="10.0"><text dominant-baseline="middle" transform="matrix(1.0000,0.0000,0.0000,1.0000,147.2505,200.0000)" stroke="none" text-anchor="middle">G</text></g><g stroke-linejoin="miter" stroke-opacity="1.0" fill-opacity="1.0" stroke="rgb(0,0,0)" stroke-width="1.3067270723253046" fill="rgb(16,120,150)" stroke-linecap="butt" stroke-miterlimit="10.0"><path d="M 151.3238,189.4094 c 0.0000,-2.2496 -1.8237,-4.0733 -4.0733 -4.0733c -2.2496,-0.0000 -4.0733,1.8237 -4.0733 4.0733c -0.0000,2.2496 1.8237,4.0733 4.0733 4.0733c 2.2496,0.0000 4.0733,-1.8237 4.0733 -4.0733Z"/></g><g stroke-linejoin="miter" stroke-opacity="1.0" fill-opacity="0.0" stroke="rgb(0,0,0)" stroke-width="1.3067270723253046" fill="rgb(0,0,0)" stroke-linecap="butt" stroke-miterlimit="10.0"><path d="M 139.1039,189.4094 h 4.0733 "/></g><g stroke-linejoin="miter" stroke-opacity="1.0" fill-opacity="1.0" font-size="8.14663951120163px" stroke="rgb(0,0,0)" stroke-width="1.3067270723253046" fill="rgb(0,0,0)" stroke-linecap="butt" stroke-miterlimit="10.0"><text dominant-baseline="middle" transform="matrix(1.0000,0.0000,0.0000,1.0000,135.0305,200.0000)" stroke="none" text-anchor="middle">G</text></g><g stroke-linejoin="miter" stroke-opacity="1.0" fill-opacity="1.0" stroke="rgb(0,0,0)" stroke-width="1.3067270723253046" fill="rgb(16,120,150)" stroke-linecap="butt" stroke-miterlimit="10.0"><path d="M 139.1039,189.4094 c 0.0000,-2.2496 -1.8237,-4.0733 -4.0733 -4.0733c -2.2496,-0.0000 -4.0733,1.8237 -4.0733 4.0733c -0.0000,2.2496 1.8237,4.0733 4.0733 4.0733c 2.2496,0.0000 4.0733,-1.8237 4.0733 -4.0733Z"/></g><g stroke-linejoin="miter" stroke-opacity="1.0" fill-opacity="0.0" stroke="rgb(0,0,0)" stroke-width="1.3067270723253046" fill="rgb(0,0,0)" stroke-linecap="butt" stroke-miterlimit="10.0"><path d="M 126.8839,189.4094 h 4.0733 "/></g><g stroke-linejoin="miter" stroke-opacity="1.0" fill-opacity="1.0" font-size="8.14663951120163px" stroke="rgb(0,0,0)" stroke-width="1.3067270723253046" fill="rgb(0,0,0)" stroke-linecap="butt" stroke-miterlimit="10.0"><text dominant-baseline="middle" transform="matrix(1.0000,0.0000,0.0000,1.0000,122.8106,200.0000)" stroke="none" text-anchor="middle">G</text></g><g stroke-linejoin="miter" stroke-opacity="1.0" fill-opacity="1.0" stroke="rgb(0,0,0)" stroke-width="1.3067270723253046" fill="rgb(16,120,150)" stroke-linecap="butt" stroke-miterlimit="10.0"><path d="M 126.8839,189.4094 c 0.0000,-2.2496 -1.8237,-4.0733 -4.0733 -4.0733c -2.2496,-0.0000 -4.0733,1.8237 -4.0733 4.0733c -0.0000,2.2496 1.8237,4.0733 4.0733 4.0733c 2.2496,0.0000 4.0733,-1.8237 4.0733 -4.0733Z"/></g><g stroke-linejoin="miter" stroke-opacity="1.0" fill-opacity="0.0" stroke="rgb(0,0,0)" stroke-width="1.3067270723253046" fill="rgb(0,0,0)" stroke-linecap="butt" stroke-miterlimit="10.0"><path d="M 114.6640,189.4094 h 4.0733 "/></g><g stroke-linejoin="miter" stroke-opacity="1.0" fill-opacity="1.0" font-size="8.14663951120163px" stroke="rgb(0,0,0)" stroke-width="1.3067270723253046" fill="rgb(0,0,0)" stroke-linecap="butt" stroke-miterlimit="10.0"><text dominant-baseline="middle" transform="matrix(1.0000,0.0000,0.0000,1.0000,110.5906,200.0000)" stroke="none" text-anchor="middle">A</text></g><g stroke-linejoin="miter" stroke-opacity="1.0" fill-opacity="1.0" stroke="rgb(0,0,0)" stroke-width="1.3067270723253046" fill="rgb(192,47,29)" stroke-linecap="butt" stroke-miterlimit="10.0"><path d="M 114.6640,189.4094 c 0.0000,-2.2496 -1.8237,-4.0733 -4.0733 -4.0733c -2.2496,-0.0000 -4.0733,1.8237 -4.0733 4.0733c -0.0000,2.2496 1.8237,4.0733 4.0733 4.0733c 2.2496,0.0000 4.0733,-1.8237 4.0733 -4.0733Z"/></g><g stroke-linejoin="miter" stroke-opacity="1.0" fill-opacity="0.0" stroke="rgb(0,0,0)" stroke-width="1.3067270723253046" fill="rgb(0,0,0)" stroke-linecap="butt" stroke-miterlimit="10.0"><path d="M 102.4440,189.4094 h 4.0733 "/></g><g stroke-linejoin="miter" stroke-opacity="1.0" fill-opacity="1.0" font-size="8.14663951120163px" stroke="rgb(0,0,0)" stroke-width="1.3067270723253046" fill="rgb(0,0,0)" stroke-linecap="butt" stroke-miterlimit="10.0"><text dominant-baseline="middle" transform="matrix(1.0000,0.0000,0.0000,1.0000,98.3707,200.0000)" stroke="none" text-anchor="middle">A</text></g><g stroke-linejoin="miter" stroke-opacity="1.0" fill-opacity="1.0" stroke="rgb(0,0,0)" stroke-width="1.3067270723253046" fill="rgb(192,47,29)" stroke-linecap="butt" stroke-miterlimit="10.0"><path d="M 102.4440,189.4094 c 0.0000,-2.2496 -1.8237,-4.0733 -4.0733 -4.0733c -2.2496,-0.0000 -4.0733,1.8237 -4.0733 4.0733c -0.0000,2.2496 1.8237,4.0733 4.0733 4.0733c 2.2496,0.0000 4.0733,-1.8237 4.0733 -4.0733Z"/></g><g stroke-linejoin="miter" stroke-opacity="1.0" fill-opacity="0.0" stroke="rgb(0,0,0)" stroke-width="1.3067270723253046" fill="rgb(0,0,0)" stroke-linecap="butt" stroke-miterlimit="10.0"><path d="M 90.2240,189.4094 h 4.0733 "/></g><g stroke-linejoin="miter" stroke-opacity="1.0" fill-opacity="1.0" font-size="8.14663951120163px" stroke="rgb(0,0,0)" stroke-width="1.3067270723253046" fill="rgb(0,0,0)" stroke-linecap="butt" stroke-miterlimit="10.0"><text dominant-baseline="middle" transform="matrix(1.0000,0.0000,0.0000,1.0000,86.1507,200.0000)" stroke="none" text-anchor="middle">A</text></g><g stroke-linejoin="miter" stroke-opacity="1.0" fill-opacity="1.0" stroke="rgb(0,0,0)" stroke-width="1.3067270723253046" fill="rgb(192,47,29)" stroke-linecap="butt" stroke-miterlimit="10.0"><path d="M 90.2240,189.4094 c 0.0000,-2.2496 -1.8237,-4.0733 -4.0733 -4.0733c -2.2496,-0.0000 -4.0733,1.8237 -4.0733 4.0733c -0.0000,2.2496 1.8237,4.0733 4.0733 4.0733c 2.2496,0.0000 4.0733,-1.8237 4.0733 -4.0733Z"/></g><g stroke-linejoin="miter" stroke-opacity="1.0" fill-opacity="0.0" stroke="rgb(0,0,0)" stroke-width="1.3067270723253046" fill="rgb(0,0,0)" stroke-linecap="butt" stroke-miterlimit="10.0"><path d="M 78.0041,189.4094 h 4.0733 "/></g><g stroke-linejoin="miter" stroke-opacity="1.0" fill-opacity="1.0" font-size="8.14663951120163px" stroke="rgb(0,0,0)" stroke-width="1.3067270723253046" fill="rgb(0,0,0)" stroke-linecap="butt" stroke-miterlimit="10.0"><text dominant-baseline="middle" transform="matrix(1.0000,0.0000,0.0000,1.0000,73.9308,200.0000)" stroke="none" text-anchor="middle">A</text></g><g stroke-linejoin="miter" stroke-opacity="1.0" fill-opacity="1.0" stroke="rgb(0,0,0)" stroke-width="1.3067270723253046" fill="rgb(192,47,29)" stroke-linecap="butt" stroke-miterlimit="10.0"><path d="M 78.0041,189.4094 c 0.0000,-2.2496 -1.8237,-4.0733 -4.0733 -4.0733c -2.2496,-0.0000 -4.0733,1.8237 -4.0733 4.0733c -0.0000,2.2496 1.8237,4.0733 4.0733 4.0733c 2.2496,0.0000 4.0733,-1.8237 4.0733 -4.0733Z"/></g><g stroke-linejoin="miter" stroke-opacity="1.0" fill-opacity="0.0" stroke="rgb(0,0,0)" stroke-width="1.3067270723253046" fill="rgb(0,0,0)" stroke-linecap="butt" stroke-miterlimit="10.0"><path d="M 65.7841,189.4094 h 4.0733 "/></g><g stroke-linejoin="miter" stroke-opacity="1.0" fill-opacity="1.0" font-size="8.14663951120163px" stroke="rgb(0,0,0)" stroke-width="1.3067270723253046" fill="rgb(0,0,0)" stroke-linecap="butt" stroke-miterlimit="10.0"><text dominant-baseline="middle" transform="matrix(1.0000,0.0000,0.0000,1.0000,61.7108,200.0000)" stroke="none" text-anchor="middle">A</text></g><g stroke-linejoin="miter" stroke-opacity="1.0" fill-opacity="1.0" stroke="rgb(0,0,0)" stroke-width="1.3067270723253046" fill="rgb(192,47,29)" stroke-linecap="butt" stroke-miterlimit="10.0"><path d="M 65.7841,189.4094 c 0.0000,-2.2496 -1.8237,-4.0733 -4.0733 -4.0733c -2.2496,-0.0000 -4.0733,1.8237 -4.0733 4.0733c -0.0000,2.2496 1.8237,4.0733 4.0733 4.0733c 2.2496,0.0000 4.0733,-1.8237 4.0733 -4.0733Z"/></g><g stroke-linejoin="miter" stroke-opacity="1.0" fill-opacity="0.0" stroke="rgb(0,0,0)" stroke-width="1.3067270723253046" fill="rgb(0,0,0)" stroke-linecap="butt" stroke-miterlimit="10.0"><path d="M 53.5642,189.4094 h 4.0733 "/></g><g stroke-linejoin="miter" stroke-opacity="1.0" fill-opacity="1.0" font-size="8.14663951120163px" stroke="rgb(0,0,0)" stroke-width="1.3067270723253046" fill="rgb(0,0,0)" stroke-linecap="butt" stroke-miterlimit="10.0"><text dominant-baseline="middle" transform="matrix(1.0000,0.0000,0.0000,1.0000,49.4908,200.0000)" stroke="none" text-anchor="middle">A</text></g><g stroke-linejoin="miter" stroke-opacity="1.0" fill-opacity="1.0" stroke="rgb(0,0,0)" stroke-width="1.3067270723253046" fill="rgb(192,47,29)" stroke-linecap="butt" stroke-miterlimit="10.0"><path d="M 53.5642,189.4094 c 0.0000,-2.2496 -1.8237,-4.0733 -4.0733 -4.0733c -2.2496,-0.0000 -4.0733,1.8237 -4.0733 4.0733c -0.0000,2.2496 1.8237,4.0733 4.0733 4.0733c 2.2496,0.0000 4.0733,-1.8237 4.0733 -4.0733Z"/></g><g stroke-linejoin="miter" stroke-opacity="1.0" fill-opacity="0.0" stroke="rgb(0,0,0)" stroke-width="1.3067270723253046" fill="rgb(0,0,0)" stroke-linecap="butt" stroke-miterlimit="10.0"><path d="M 41.3442,189.4094 h 4.0733 "/></g><g stroke-linejoin="miter" stroke-opacity="1.0" fill-opacity="1.0" font-size="8.14663951120163px" stroke="rgb(0,0,0)" stroke-width="1.3067270723253046" fill="rgb(0,0,0)" stroke-linecap="butt" stroke-miterlimit="10.0"><text dominant-baseline="middle" transform="matrix(1.0000,0.0000,0.0000,1.0000,37.2709,200.0000)" stroke="none" text-anchor="middle">G</text></g><g stroke-linejoin="miter" stroke-opacity="1.0" fill-opacity="1.0" stroke="rgb(0,0,0)" stroke-width="1.3067270723253046" fill="rgb(16,120,150)" stroke-linecap="butt" stroke-miterlimit="10.0"><path d="M 41.3442,189.4094 c 0.0000,-2.2496 -1.8237,-4.0733 -4.0733 -4.0733c -2.2496,-0.0000 -4.0733,1.8237 -4.0733 4.0733c -0.0000,2.2496 1.8237,4.0733 4.0733 4.0733c 2.2496,0.0000 4.0733,-1.8237 4.0733 -4.0733Z"/></g></svg>