<?xml version="1.0" encoding="UTF-8"?>
<!DOCTYPE svg PUBLIC "-//W3C//DTD SVG 1.1//EN"
    "http://www.w3.org/Graphics/SVG/1.1/DTD/svg11.dtd"><svg xmlns="http://www.w3.org/2000/svg" height="300.0000" stroke-opacity="1" viewBox="0 0 600 300" font-size="1" width="600.0000" xmlns:xlink="http://www.w3.org/1999/xlink" stroke="rgb(0,0,0)" version="1.1"><defs></defs><g stroke-linejoin="miter" stroke-opacity="1.0" fill-opacity="0.0" stroke="rgb(0,0,0)" stroke-width="1.4003707251792046" fill="rgb(0,0,0)" stroke-linecap="butt" stroke-miterlimit="10.0"><path d="M 430.5344,240.2290 c 0.0000,-106.2410 -86.1254,-192.3664 -192.3664 -192.3664c -106.2410,-0.0000 -192.3664,86.1254 -192.3664 192.3664"/></g><g stroke-linejoin="miter" stroke-opacity="1.0" fill-opacity="0.0" stroke="rgb(0,0,0)" stroke-width="1.4003707251792046" fill="rgb(0,0,0)" stroke-linecap="butt" stroke-miterlimit="10.0"><path d="M 512.9771,240.2290 c 0.0000,-18.9716 -15.3795,-34.3511 -34.3511 -34.3511c -18.9716,-0.0000 -34.3511,15.3795 -34.3511 34.3511"/></g><g stroke-linejoin="miter" stroke-opacity="1.0" fill-opacity="0.0" stroke="rgb(0,0,0)" stroke-width="1.4003707251792046" fill="rgb(0,0,0)" stroke-linecap="butt" stroke-miterlimit="10.0"><path d="M 567.9389,240.2290 c 0.0000,-11.3830 -9.2277,-20.6107 -20.6107 -20.6107c -11.3830,-0.0000 -20.6107,9.2277 -20.6107 20.6107"/></g><g stroke-linejoin="miter" stroke-opacity="1.0" fill-opacity="1.0" font-size="9.16030534351145px" stroke="rgb(0,0,0)" stroke-width="1.4003707251792046" fill="rgb(0,0,0)" stroke-linecap="butt" stroke-miterlimit="10.0"><text dominant-baseline="middle" transform="matrix(1.0000,0.0000,0.0000,1.0000,595.4198,252.1374)" stroke="none" text-anchor="middle">A</text></g><g stroke-linejoin="miter" stroke-opacity="1.0" fill-opacity="1.0" stroke="rgb(0,0,0)" stroke-width="1.4003707251792046" fill="rgb(192,47,29)" stroke-linecap="butt" stroke-miterlimit="10.0"><path d="M 600.0000,240.2290 c 0.0000,-2.5295 -2.0506,-4.5802 -4.5802 -4.5802c -2.5295,-0.0000 -4.5802,2.0506 -4.5802 4.5802c -0.0000,2.5295 2.0506,4.5802 4.5802 4.5802c 2.5295,0.0000 4.5802,-2.0506 4.5802 -4.5802Z"/></g><g stroke-linejoin="miter" stroke-opacity="1.0" fill-opacity="0.0" stroke="rgb(0,0,0)" stroke-width="1.4003707251792046" fill="rgb(0,0,0)" stroke-linecap="butt" stroke-miterlimit="10.0"><path d="M 586.2595,240.2290 h 4.5802 "/></g><g stroke-linejoin="miter" stroke-opacity="1.0" fill-opacity="1.0" font-size="9.16030534351145px" stroke="rgb(0,0,0)" stroke-width="1.4003707251792046" fill="rgb(0,0,0)" stroke-linecap="butt" stroke-miterlimit="10.0"><text dominant-baseline="middle" transform="matrix(1.0000,0.0000,0.0000,1.0000,581.6794,252.1374)" stroke="none" text-anchor="middle">A</text></g><g stroke-linejoin="miter" stroke-opacity="1.0" fill-opacity="1.0" stroke="rgb(0,0,0)" stroke-width="1.4003707251792046" fill="rgb(192,47,29)" stroke-linecap="butt" stroke-miterlimit="10.0"><path d="M 586.2595,240.2290 c 0.0000,-2.5295 -2.0506,-4.5802 -4.5802 -4.5802c -2.5295,-0.0000 -4.5802,2.0506 -4.5802 4.5802c -0.0000,2.5295 2.0506,4.5802 4.5802 4.5802c 2.5295,0.0000 4.5802,-2.0506 4.5802 -4.5802Z"/></g><g stroke-linejoin="miter" stroke-opacity="1.0" fill-opacity="0.0" stroke="rgb(0,0,0)" stroke-width="1.4003707251792046" fill="rgb(0,0,0)" stroke-linecap="butt" stroke-miterlimit="10.0"><path d="M 572.5191,240.2290 h 4.5802 "/></g><g stroke-linejoin="miter" stroke-opacity="1.0" fill-opacity="1.0" font-size="9.16030534351145px" stroke="rgb(0,0,0)" stroke-width="1.4003707251792046" fill="rgb(0,0,0)" stroke-linecap="butt" stroke-miterlimit="10.0"><text dominant-baseline="middle" transform="matrix(1.0000,0.0000,0.0000,1.0000,567.9389,252.1374)" stroke="none" text-anchor="middle">C</text></g><g stroke-linejoin="miter" stroke-opacity="1.0" fill-opacity="1.0" stroke="rgb(0,0,0)" stroke-width="1.4003707251792046" fill="rgb(130,147,86)" stroke-linecap="butt" stroke-miterlimit="10.0"><path d="M 572.5191,240.2290 c 0.0000,-2.5295 -2.0506,-4.5802 -4.5802 -4.5802c -2.5295,-0.0000 -4.5802,2.0506 -4.5802 4.5802c -0.0000,2.5295 2.0506,4.5802 4.5802 4.5802c 2.5295,0.0000 4.5802,-2.0506 4.5802 -4.5802Z"/></g><g stroke-linejoin="miter" stroke-opacity="1.0" fill-opacity="0.0" stroke="rgb(0,0,0)" stroke-width="1.4003707251792046" fill="rgb(0,0,0)" stroke-linecap="butt" stroke-miterlimit="10.0"><path d="M 558.7786,240.2290 h 4.5802 "/></g><g stroke-linejoin="miter" stroke-opacity="1.0" fill-opacity="0.0" stroke="rgb(0,0,0)" stroke-width="1.4003707251792046" fill="rgb(0,0,0)" stroke-linecap="butt" stroke-miterlimit="10.0"><path d="M 554.1985,240.2290 c 0.0000,-3.7943 -3.0759,-6.8702 -6.8702 -6.8702c -3.7943,-0.0000 -6.8702,3.0759 -6.8702 6.8702"/></g><g stroke-linejoin="miter" stroke-opacity="1.0" fill-opacity="1.0" font-size="9.16030534351145px" stroke="rgb(0,0,0)" stroke-width="1.4003707251792046" fill="rgb(0,0,0)" stroke-linecap="butt" stroke-miterlimit="10.0"><text dominant-baseline="middle" transform="matrix(1.0000,0.0000,0.0000,1.0000,554.1985,252.1374)" stroke="none" text-anchor="middle">C</text></g><g stroke-linejoin="miter" stroke-opacity="1.0" fill-opacity="1.0" stroke="rgb(0,0,0)" stroke-width="1.4003707251792046" fill="rgb(130,147,86)" stroke-linecap="butt" stroke-miterlimit="10.0"><path d="M 558.7786,240.2290 c 0.0000,-2.5295 -2.0506,-4.5802 -4.5802 -4.5802c -2.5295,-0.0000 -4.5802,2.0506 -4.5802 4.5802c -0.0000,2.5295 2.0506,4.5802 4.5802 4.5802c 2.5295,0.0000 4.5802,-2.0506 4.5802 -4.5802Z"/></g><g stroke-linejoin="miter" stroke-opacity="1.0" fill-opacity="0.0" stroke="rgb(0,0,0)" stroke-width="1.4003707251792046" fill="rgb(0,0,0)" stroke-linecap="butt" stroke-miterlimit="10.0"><path d="M 545.0382,240.2290 h 4.5802 "/></g><g stroke-linejoin="miter" stroke-opacity="1.0" fill-opacity="1.0" font-size="9.16030534351145px" stroke="rgb(0,0,0)" stroke-width="1.4003707251792046" fill="rgb(0,0,0)" stroke-linecap="butt" stroke-miterlimit="10.0"><text dominant-baseline="middle" transform="matrix(1.0000,0.0000,0.0000,1.0000,540.4580,252.1374)" stroke="none" text-anchor="middle">G</text></g><g stroke-linejoin="miter" stroke-opacity="1.0" fill-opacity="1.0" stroke="rgb(0,0,0)" stroke-width="1.4003707251792046" fill="rgb(16,120,150)" stroke-linecap="butt" stroke-miterlimit="10.0"><path d="M 545.0382,240.2290 c 0.0000,-2.5295 -2.0506,-4.5802 -4.5802 -4.5802c -2.5295,-0.0000 -4.5802,2.0506 -4.5802 4.5802c -0.0000,2.5295 2.0506,4.5802 4.5802 4.5802c 2.5295,0.0000 4.5802,-2.0506 4.5802 -4.5802Z"/></g><g stroke-linejoin="miter" stroke-opacity="1.0" fill-opacity="0.0" stroke="rgb(0,0,0)" stroke-width="1.4003707251792046" fill="rgb(0,0,0)" stroke-linecap="butt" stroke-miterlimit="10.0"><path d="M 531.2977,240.2290 h 4.5802 "/></g><g stroke-linejoin="miter" stroke-opacity="1.0" fill-opacity="1.0" font-size="9.16030534351145px" stroke="rgb(0,0,0)" stroke-width="1.4003707251792046" fill="rgb(0,0,0)" stroke-linecap="butt" stroke-miterlimit="10.0"><text dominant-baseline="middle" transform="matrix(1.0000,0.0000,0.0000,1.0000,526.7176,252.1374)" stroke="none" text-anchor="middle">G</text></g><g stroke-linejoin="miter" stroke-opacity="1.0" fill-opacity="1.0" stroke="rgb(0,0,0)" stroke-width="1.4003707251792046" fill="rgb(16,120,150)" stroke-linecap="butt" stroke-miterlimit="10.0"><path d="M 531.2977,240.2290 c 0.0000,-2.5295 -2.0506,-4.5802 -4.5802 -4.5802c -2.5295,-0.0000 -4.5802,2.0506 -4.5802 4.5802c -0.0000,2.5295 2.0506,4.5802 4.5802 4.5802c 2.5295,0.0000 4.5802,-2.0506 4.5802 -4.5802Z"/></g><g stroke-linejoin="miter" stroke-opacity="1.0" fill-opacity="0.0" stroke="rgb(0,0,0)" stroke-width="1.4003707251792046" fill="rgb(0,0,0)" stroke-linecap="butt" stroke-miterlimit="10.0"><path d="M 517.5573,240.2290 h 4.5802 "/></g><g stroke-linejoin="miter" stroke-opacity="1.0" fill-opacity="1.0" font-size="9.16030534351145px" stroke="rgb(0,0,0)" stroke-width="1.4003707251792046" fill="rgb(0,0,0)" stroke-linecap="butt" stroke-miterlimit="10.0"><text dominant-baseline="middle" transform="matrix(1.0000,0.0000,0.0000,1.0000,512.9771,252.1374)" stroke="none" text-anchor="middle">A</text></g><g stroke-linejoin="miter" stroke-opacity="1.0" fill-opacity="1.0" stroke="rgb(0,0,0)" stroke-width="1.4003707251792046" fill="rgb(192,47,29)" stroke-linecap="butt" stroke-miterlimit="10.0"><path d="M 517.5573,240.2290 c 0.0000,-2.5295 -2.0506,-4.5802 -4.5802 -4.5802c -2.5295,-0.0000 -4.5802,2.0506 -4.5802 4.5802c -0.0000,2.5295 2.0506,4.5802 4.5802 4.5802c 2.5295,0.0000 4.5802,-2.0506 4.5802 -4.5802Z"/></g><g stroke-linejoin="miter" stroke-opacity="1.0" fill-opacity="0.0" stroke="rgb(0,0,0)" stroke-width="1.4003707251792046" fill="rgb(0,0,0)" stroke-linecap="butt" stroke-miterlimit="10.0"><path d="M 503.8168,240.2290 h 4.5802 "/></g><g stroke-linejoin="miter" stroke-opacity="1.0" fill-opacity="0.0" stroke="rgb(0,0,0)" stroke-width="1.4003707251792046" fill="rgb(0,0,0)" stroke-linecap="butt" stroke-miterlimit="10.0"><path d="M 485.4962,240.2290 c 0.0000,-7.5886 -6.1518,-13.7405 -13.7405 -13.7405c -7.5886,-0.0000 -13.7405,6.1518 -13.7405 13.7405"/></g><g stroke-linejoin="miter" stroke-opacity="1.0" fill-opacity="1.0" font-size="9.16030534351145px" stroke="rgb(0,0,0)" stroke-width="1.4003707251792046" fill="rgb(0,0,0)" stroke-linecap="butt" stroke-miterlimit="10.0"><text dominant-baseline="middle" transform="matrix(1.0000,0.0000,0.0000,1.0000,499.2366,252.1374)" stroke="none" text-anchor="middle">A</text></g><g stroke-linejoin="miter" stroke-opacity="1.0" fill-opacity="1.0" stroke="rgb(0,0,0)" stroke-width="1.4003707251792046" fill="rgb(192,47,29)" stroke-linecap="butt" stroke-miterlimit="10.0"><path d="M 503.8168,240.2290 c 0.0000,-2.5295 -2.0506,-4.5802 -4.5802 -4.5802c -2.5295,-0.0000 -4.5802,2.0506 -4.5802 4.5802c -0.0000,2.5295 2.0506,4.5802 4.5802 4.5802c 2.5295,0.0000 4.5802,-2.0506 4.5802 -4.5802Z"/></g><g stroke-linejoin="miter" stroke-opacity="1.0" fill-opacity="0.0" stroke="rgb(0,0,0)" stroke-width="1.4003707251792046" fill="rgb(0,0,0)" stroke-linecap="butt" stroke-miterlimit="10.0"><path d="M 490.0763,240.2290 h 4.5802 "/></g><g stroke-linejoin="miter" stroke-opacity="1.0" fill-opacity="1.0" font-size="9.16030534351145px" stroke="rgb(0,0,0)" stroke-width="1.4003707251792046" fill="rgb(0,0,0)" stroke-linecap="butt" stroke-miterlimit="10.0"><text dominant-baseline="middle" transform="matrix(1.0000,0.0000,0.0000,1.0000,485.4962,252.1374)" stroke="none" text-anchor="middle">A</text></g><g stroke-linejoin="miter" stroke-opacity="1.0" fill-opacity="1.0" stroke="rgb(0,0,0)" stroke-width="1.4003707251792046" fill="rgb(192,47,29)" stroke-linecap="butt" stroke-miterlimit="10.0"><path d="M 490.0763,240.2290 c 0.0000,-2.5295 -2.0506,-4.5802 -4.5802 -4.5802c -2.5295,-0.0000 -4.5802,2.0506 -4.5802 4.5802c -0.0000,2.5295 2.0506,4.5802 4.5802 4.5802c 2.5295,0.0000 4.5802,-2.0506 4.5802 -4.5802Z"/></g><g stroke-linejoin="miter" stroke-opacity="1.0" fill-opacity="0.0" stroke="rgb(0,0,0)" stroke-width="1.4003707251792046" fill="rgb(0,0,0)" stroke-linecap="butt" stroke-miterlimit="10.0"><path d="M 476.3359,240.2290 h 4.5802 "/></g><g stroke-linejoin="miter" stroke-opacity="1.0" fill-opacity="1.0" font-size="9.16030534351145px" stroke="rgb(0,0,0)" stroke-width="1.4003707251792046" fill="rgb(0,0,0)" stroke-linecap="butt" stroke-miterlimit="10.0"><text dominant-baseline="middle" transform="matrix(1.0000,0.0000,0.0000,1.0000,471.7557,252.1374)" stroke="none" text-anchor="middle">A</text></g><g stroke-linejoin="miter" stroke-opacity="1.0" fill-opacity="1.0" stroke="rgb(0,0,0)" stroke-width="1.4003707251792046" fill="rgb(192,47,29)" stroke-linecap="butt" stroke-miterlimit="10.0"><path d="M 476.3359,240.2290 c 0.0000,-2.5295 -2.0506,-4.5802 -4.5802 -4.5802c -2.5295,-0.0000 -4.5802,2.0506 -4.5802 4.5802c -0.0000,2.5295 2.0506,4.5802 4.5802 4.5802c 2.5295,0.0000 4.5802,-2.0506 4.5802 -4.5802Z"/></g><g stroke-linejoin="miter" stroke-opacity="1.0" fill-opacity="0.0" stroke="rgb(0,0,0)" stroke-width="1.4003707251792046" fill="rgb(0,0,0)" stroke-linecap="butt" stroke-miterlimit="10.0"><path d="M 462.5954,240.2290 h 4.5802 "/></g><g stroke-linejoin="miter" stroke-opacity="1.0" fill-opacity="1.0" font-size="9.16030534351145px" stroke="rgb(0,0,0)" stroke-width="1.4003707251792046" fill="rgb(0,0,0)" stroke-linecap="butt" stroke-miterlimit="10.0"><text dominant-baseline="middle" transform="matrix(1.0000,0.0000,0.0000,1.0000,458.0153,252.1374)" stroke="none" text-anchor="middle">U</text></g><g stroke-linejoin="miter" stroke-opacity="1.0" fill-opacity="1.0" stroke="rgb(0,0,0)" stroke-width="1.4003707251792046" fill="rgb(242,109,33)" stroke-linecap="butt" stroke-miterlimit="10.0"><path d="M 462.5954,240.2290 c 0.0000,-2.5295 -2.0506,-4.5802 -4.5802 -4.5802c -2.5295,-0.0000 -4.5802,2.0506 -4.5802 4.5802c -0.0000,2.5295 2.0506,4.5802 4.5802 4.5802c 2.5295,0.0000 4.5802,-2.0506 4.5802 -4.5802Z"/></g><g stroke-linejoin="miter" stroke-opacity="1.0" fill-opacity="0.0" stroke="rgb(0,0,0)" stroke-width="1.4003707251792046" fill="rgb(0,0,0)" stroke-linecap="butt" stroke-miterlimit="10.0"><path d="M 448.8550,240.2290 h 4.5802 "/></g><g stroke-linejoin="miter" stroke-opacity="1.0" fill-opacity="1.0" font-size="9.16030534351145px" stroke="rgb(0,0,0)" stroke-width="1.4003707251792046" fill="rgb(0,0,0)" stroke-linecap="butt" stroke-miterlimit="10.0"><text dominant-baseline="middle" transform="matrix(1.0000,0.0000,0.0000,1.0000,444.2748,252.1374)" stroke="none" text-anchor="middle">U</text></g><g stroke-linejoin="miter" stroke-opacity="1.0" fill-opacity="1.0" stroke="rgb(0,0,0)" stroke-width="1.4003707251792046" fill="rgb(242,109,33)" stroke-linecap="butt" stroke-miterlimit="10.0"><path d="M 448.8550,240.2290 c 0.0000,-2.5295 -2.0506,-4.5802 -4.5802 -4.5802c -2.5295,-0.0000 -4.5802,2.0506 -4.5802 4.5802c -0.0000,2.5295 2.0506,4.5802 4.5802 4.5802c 2.5295,0.0000 4.5802,-2.0506 4.5802 -4.5802Z"/></g><g stroke-linejoin="miter" stroke-opacity="1.0" fill-opacity="0.0" stroke="rgb(0,0,0)" stroke-width="1.4003707251792046" fill="rgb(0,0,0)" stroke-linecap="butt" stroke-miterlimit="10.0"><path d="M 435.1145,240.2290 h 4.5802 "/></g><g stroke-linejoin="miter" stroke-opacity="1.0" fill-opacity="1.0" font-size="9.16030534351145px" stroke="rgb(0,0,0)" stroke-width="1.4003707251792046" fill="rgb(0,0,0)" stroke-linecap="butt" stroke-miterlimit="10.0"><text dominant-baseline="middle" transform="matrix(1.0000,0.0000,0.0000,1.0000,430.5344,252.1374)" stroke="none" text-anchor="middle">U</text></g><g stroke-linejoin="miter" stroke-opacity="1.0" fill-opacity="1.0" stroke="rgb(0,0,0)" stroke-width="1.4003707251792046" fill="rgb(242,109,33)" stroke-linecap="butt" stroke-miterlimit="10.0"><path d="M 435.1145,240.2290 c 0.0000,-2.5295 -2.0506,-4.5802 -4.5802 -4.5802c -2.5295,-0.0000 -4.5802,2.0506 -4.5802 4.5802c -0.0000,2.5295 2.0506,4.5802 4.5802 4.5802c 2.5295,0.0000 4.5802,-2.0506 4.5802 -4.5802Z"/></g><g stroke-linejoin="miter" stroke-opacity="1.0" fill-opacity="0.0" stroke="rgb(0,0,0)" stroke-width="1.4003707251792046" fill="rgb(0,0,0)" stroke-linecap="butt" stroke-miterlimit="10.0"><path d="M 421.3740,240.2290 h 4.5802 "/></g><g stroke-linejoin="miter" stroke-opacity="1.0" fill-opacity="0.0" stroke="rgb(0,0,0)" stroke-width="1.4003707251792046" fill="rgb(0,0,0)" stroke-linecap="butt" stroke-miterlimit="10.0"><path d="M 416.7939,240.2290 c 0.0000,-98.6524 -79.9736,-178.6260 -178.6260 -178.6260c -98.6524,-0.0000 -178.6260,79.9736 -178.6260 178.6260"/></g><g stroke-linejoin="miter" stroke-opacity="1.0" fill-opacity="1.0" font-size="9.16030534351145px" stroke="rgb(0,0,0)" stroke-width="1.4003707251792046" fill="rgb(0,0,0)" stroke-linecap="butt" stroke-miterlimit="10.0"><text dominant-baseline="middle" transform="matrix(1.0000,0.0000,0.0000,1.0000,416.7939,252.1374)" stroke="none" text-anchor="middle">U</text></g><g stroke-linejoin="miter" stroke-opacity="1.0" fill-opacity="1.0" stroke="rgb(0,0,0)" stroke-width="1.4003707251792046" fill="rgb(242,109,33)" stroke-linecap="butt" stroke-miterlimit="10.0"><path d="M 421.3740,240.2290 c 0.0000,-2.5295 -2.0506,-4.5802 -4.5802 -4.5802c -2.5295,-0.0000 -4.5802,2.0506 -4.5802 4.5802c -0.0000,2.5295 2.0506,4.5802 4.5802 4.5802c 2.5295,0.0000 4.5802,-2.0506 4.5802 -4.5802Z"/></g><g stroke-linejoin="miter" stroke-opacity="1.0" fill-opacity="0.0" stroke="rgb(0,0,0)" stroke-width="1.4003707251792046" fill="rgb(0,0,0)" stroke-linecap="butt" stroke-miterlimit="10.0"><path d="M 407.6336,240.2290 h 4.5802 "/></g><g stroke-linejoin="miter" stroke-opacity="1.0" fill-opacity="0.0" stroke="rgb(0,0,0)" stroke-width="1.4003707251792046" fill="rgb(0,0,0)" stroke-linecap="butt" stroke-miterlimit="10.0"><path d="M 375.5725,240.2290 c 0.0000,-83.4751 -67.6699,-151.1450 -151.1450 -151.1450c -83.4751,-0.0000 -151.1450,67.6699 -151.1450 151.1450"/></g><g stroke-linejoin="miter" stroke-opacity="1.0" fill-opacity="0.0" stroke="rgb(0,0,0)" stroke-width="1.4003707251792046" fill="rgb(0,0,0)" stroke-linecap="butt" stroke-miterlimit="10.0"><path d="M 403.0534,240.2290 c 0.0000,-3.7943 -3.0759,-6.8702 -6.8702 -6.8702c -3.7943,-0.0000 -6.8702,3.0759 -6.8702 6.8702"/></g><g stroke-linejoin="miter" stroke-opacity="1.0" fill-opacity="1.0" font-size="9.16030534351145px" stroke="rgb(0,0,0)" stroke-width="1.4003707251792046" fill="rgb(0,0,0)" stroke-linecap="butt" stroke-miterlimit="10.0"><text dominant-baseline="middle" transform="matrix(1.0000,0.0000,0.0000,1.0000,403.0534,252.1374)" stroke="none" text-anchor="middle">C</text></g><g stroke-linejoin="miter" stroke-opacity="1.0" fill-opacity="1.0" stroke="rgb(0,0,0)" stroke-width="1.4003707251792046" fill="rgb(130,147,86)" stroke-linecap="butt" stroke-miterlimit="10.0"><path d="M 407.6336,240.2290 c 0.0000,-2.5295 -2.0506,-4.5802 -4.5802 -4.5802c -2.5295,-0.0000 -4.5802,2.0506 -4.5802 4.5802c -0.0000,2.5295 2.0506,4.5802 4.5802 4.5802c 2.5295,0.0000 4.5802,-2.0506 4.5802 -4.5802Z"/></g><g stroke-linejoin="miter" stroke-opacity="1.0" fill-opacity="0.0" stroke="rgb(0,0,0)" stroke-width="1.4003707251792046" fill="rgb(0,0,0)" stroke-linecap="butt" stroke-miterlimit="10.0"><path d="M 393.8931,240.2290 h 4.5802 "/></g><g stroke-linejoin="miter" stroke-opacity="1.0" fill-opacity="1.0" font-size="9.16030534351145px" stroke="rgb(0,0,0)" stroke-width="1.4003707251792046" fill="rgb(0,0,0)" stroke-linecap="butt" stroke-miterlimit="10.0"><text dominant-baseline="middle" transform="matrix(1.0000,0.0000,0.0000,1.0000,389.3130,252.1374)" stroke="none" text-anchor="middle">G</text></g><g stroke-linejoin="miter" stroke-opacity="1.0" fill-opacity="1.0" stroke="rgb(0,0,0)" stroke-width="1.4003707251792046" fill="rgb(16,120,150)" stroke-linecap="butt" stroke-miterlimit="10.0"><path d="M 393.8931,240.2290 c 0.0000,-2.5295 -2.0506,-4.5802 -4.5802 -4.5802c -2.5295,-0.0000 -4.5802,2.0506 -4.5802 4.5802c -0.0000,2.5295 2.0506,4.5802 4.5802 4.5802c 2.5295,0.0000 4.5802,-2.0506 4.5802 -4.5802Z"/></g><g stroke-linejoin="miter" stroke-opacity="1.0" fill-opacity="0.0" stroke="rgb(0,0,0)" stroke-width="1.4003707251792046" fill="rgb(0,0,0)" stroke-linecap="butt" stroke-miterlimit="10.0"><path d="M 380.1527,240.2290 h 4.5802 "/></g><g stroke-linejoin="miter" stroke-opacity="1.0" fill-opacity="1.0" font-size="9.16030534351145px" stroke="rgb(0,0,0)" stroke-width="1.4003707251792046" fill="rgb(0,0,0)" stroke-linecap="butt" stroke-miterlimit="10.0"><text dominant-baseline="middle" transform="matrix(1.0000,0.0000,0.0000,1.0000,375.5725,252.1374)" stroke="none" text-anchor="middle">U</text></g><g stroke-linejoin="miter" stroke-opacity="1.0" fill-opacity="1.0" stroke="rgb(0,0,0)" stroke-width="1.4003707251792046" fill="rgb(242,109,33)" stroke-linecap="butt" stroke-miterlimit="10.0"><path d="M 380.1527,240.2290 c 0.0000,-2.5295 -2.0506,-4.5802 -4.5802 -4.5802c -2.5295,-0.0000 -4.5802,2.0506 -4.5802 4.5802c -0.0000,2.5295 2.0506,4.5802 4.5802 4.5802c 2.5295,0.0000 4.5802,-2.0506 4.5802 -4.5802Z"/></g><g stroke-linejoin="miter" stroke-opacity="1.0" fill-opacity="0.0" stroke="rgb(0,0,0)" stroke-width="1.4003707251792046" fill="rgb(0,0,0)" stroke-linecap="butt" stroke-miterlimit="10.0"><path d="M 366.4122,240.2290 h 4.5802 "/></g><g stroke-linejoin="miter" stroke-opacity="1.0" fill-opacity="0.0" stroke="rgb(0,0,0)" stroke-width="1.4003707251792046" fill="rgb(0,0,0)" stroke-linecap="butt" stroke-miterlimit="10.0"><path d="M 306.8702,240.2290 c 0.0000,-56.9148 -46.1386,-103.0534 -103.0534 -103.0534c -56.9148,-0.0000 -103.0534,46.1386 -103.0534 103.0534"/></g><g stroke-linejoin="miter" stroke-opacity="1.0" fill-opacity="0.0" stroke="rgb(0,0,0)" stroke-width="1.4003707251792046" fill="rgb(0,0,0)" stroke-linecap="butt" stroke-miterlimit="10.0"><path d="M 361.8321,240.2290 c 0.0000,-11.3830 -9.2277,-20.6107 -20.6107 -20.6107c -11.3830,-0.0000 -20.6107,9.2277 -20.6107 20.6107"/></g><g stroke-linejoin="miter" stroke-opacity="1.0" fill-opacity="1.0" font-size="9.16030534351145px" stroke="rgb(0,0,0)" stroke-width="1.4003707251792046" fill="rgb(0,0,0)" stroke-linecap="butt" stroke-miterlimit="10.0"><text dominant-baseline="middle" transform="matrix(1.0000,0.0000,0.0000,1.0000,361.8321,252.1374)" stroke="none" text-anchor="middle">U</text></g><g stroke-linejoin="miter" stroke-opacity="1.0" fill-opacity="1.0" stroke="rgb(0,0,0)" stroke-width="1.4003707251792046" fill="rgb(242,109,33)" stroke-linecap="butt" stroke-miterlimit="10.0"><path d="M 366.4122,240.2290 c 0.0000,-2.5295 -2.0506,-4.5802 -4.5802 -4.5802c -2.5295,-0.0000 -4.5802,2.0506 -4.5802 4.5802c -0.0000,2.5295 2.0506,4.5802 4.5802 4.5802c 2.5295,0.0000 4.5802,-2.0506 4.5802 -4.5802Z"/></g><g stroke-linejoin="miter" stroke-opacity="1.0" fill-opacity="0.0" stroke="rgb(0,0,0)" stroke-width="1.4003707251792046" fill="rgb(0,0,0)" stroke-linecap="butt" stroke-miterlimit="10.0"><path d="M 352.6718,240.2290 h 4.5802 "/></g><g stroke-linejoin="miter" stroke-opacity="1.0" fill-opacity="0.0" stroke="rgb(0,0,0)" stroke-width="1.4003707251792046" fill="rgb(0,0,0)" stroke-linecap="butt" stroke-miterlimit="10.0"><path d="M 348.0916,240.2290 c 0.0000,-3.7943 -3.0759,-6.8702 -6.8702 -6.8702c -3.7943,-0.0000 -6.8702,3.0759 -6.8702 6.8702"/></g><g stroke-linejoin="miter" stroke-opacity="1.0" fill-opacity="1.0" font-size="9.16030534351145px" stroke="rgb(0,0,0)" stroke-width="1.4003707251792046" fill="rgb(0,0,0)" stroke-linecap="butt" stroke-miterlimit="10.0"><text dominant-baseline="middle" transform="matrix(1.0000,0.0000,0.0000,1.0000,348.0916,252.1374)" stroke="none" text-anchor="middle">U</text></g><g stroke-linejoin="miter" stroke-opacity="1.0" fill-opacity="1.0" stroke="rgb(0,0,0)" stroke-width="1.4003707251792046" fill="rgb(242,109,33)" stroke-linecap="butt" stroke-miterlimit="10.0"><path d="M 352.6718,240.2290 c 0.0000,-2.5295 -2.0506,-4.5802 -4.5802 -4.5802c -2.5295,-0.0000 -4.5802,2.0506 -4.5802 4.5802c -0.0000,2.5295 2.0506,4.5802 4.5802 4.5802c 2.5295,0.0000 4.5802,-2.0506 4.5802 -4.5802Z"/></g><g stroke-linejoin="miter" stroke-opacity="1.0" fill-opacity="0.0" stroke="rgb(0,0,0)" stroke-width="1.4003707251792046" fill="rgb(0,0,0)" stroke-linecap="butt" stroke-miterlimit="10.0"><path d="M 338.9313,240.2290 h 4.5802 "/></g><g stroke-linejoin="miter" stroke-opacity="1.0" fill-opacity="1.0" font-size="9.16030534351145px" stroke="rgb(0,0,0)" stroke-width="1.4003707251792046" fill="rgb(0,0,0)" stroke-linecap="butt" stroke-miterlimit="10.0"><text dominant-baseline="middle" transform="matrix(1.0000,0.0000,0.0000,1.0000,334.3511,252.1374)" stroke="none" text-anchor="middle">A</text></g><g stroke-linejoin="miter" stroke-opacity="1.0" fill-opacity="1.0" stroke="rgb(0,0,0)" stroke-width="1.4003707251792046" fill="rgb(192,47,29)" stroke-linecap="butt" stroke-miterlimit="10.0"><path d="M 338.9313,240.2290 c 0.0000,-2.5295 -2.0506,-4.5802 -4.5802 -4.5802c -2.5295,-0.0000 -4.5802,2.0506 -4.5802 4.5802c -0.0000,2.5295 2.0506,4.5802 4.5802 4.5802c 2.5295,0.0000 4.5802,-2.0506 4.5802 -4.5802Z"/></g><g stroke-linejoin="miter" stroke-opacity="1.0" fill-opacity="0.0" stroke="rgb(0,0,0)" stroke-width="1.4003707251792046" fill="rgb(0,0,0)" stroke-linecap="butt" stroke-miterlimit="10.0"><path d="M 325.1908,240.2290 h 4.5802 "/></g><g stroke-linejoin="miter" stroke-opacity="1.0" fill-opacity="1.0" font-size="9.16030534351145px" stroke="rgb(0,0,0)" stroke-width="1.4003707251792046" fill="rgb(0,0,0)" stroke-linecap="butt" stroke-miterlimit="10.0"><text dominant-baseline="middle" transform="matrix(1.0000,0.0000,0.0000,1.0000,320.6107,252.1374)" stroke="none" text-anchor="middle">A</text></g><g stroke-linejoin="miter" stroke-opacity="1.0" fill-opacity="1.0" stroke="rgb(0,0,0)" stroke-width="1.4003707251792046" fill="rgb(192,47,29)" stroke-linecap="butt" stroke-miterlimit="10.0"><path d="M 325.1908,240.2290 c 0.0000,-2.5295 -2.0506,-4.5802 -4.5802 -4.5802c -2.5295,-0.0000 -4.5802,2.0506 -4.5802 4.5802c -0.0000,2.5295 2.0506,4.5802 4.5802 4.5802c 2.5295,0.0000 4.5802,-2.0506 4.5802 -4.5802Z"/></g><g stroke-linejoin="miter" stroke-opacity="1.0" fill-opacity="0.0" stroke="rgb(0,0,0)" stroke-width="1.4003707251792046" fill="rgb(0,0,0)" stroke-linecap="butt" stroke-miterlimit="10.0"><path d="M 311.4504,240.2290 h 4.5802 "/></g><g stroke-linejoin="miter" stroke-opacity="1.0" fill-opacity="1.0" font-size="9.16030534351145px" stroke="rgb(0,0,0)" stroke-width="1.4003707251792046" fill="rgb(0,0,0)" stroke-linecap="butt" stroke-miterlimit="10.0"><text dominant-baseline="middle" transform="matrix(1.0000,0.0000,0.0000,1.0000,306.8702,252.1374)" stroke="none" text-anchor="middle">C</text></g><g stroke-linejoin="miter" stroke-opacity="1.0" fill-opacity="1.0" stroke="rgb(0,0,0)" stroke-width="1.4003707251792046" fill="rgb(130,147,86)" stroke-linecap="butt" stroke-miterlimit="10.0"><path d="M 311.4504,240.2290 c 0.0000,-2.5295 -2.0506,-4.5802 -4.5802 -4.5802c -2.5295,-0.0000 -4.5802,2.0506 -4.5802 4.5802c -0.0000,2.5295 2.0506,4.5802 4.5802 4.5802c 2.5295,0.0000 4.5802,-2.0506 4.5802 -4.5802Z"/></g><g stroke-linejoin="miter" stroke-opacity="1.0" fill-opacity="0.0" stroke="rgb(0,0,0)" stroke-width="1.4003707251792046" fill="rgb(0,0,0)" stroke-linecap="butt" stroke-miterlimit="10.0"><path d="M 297.7099,240.2290 h 4.5802 "/></g><g stroke-linejoin="miter" stroke-opacity="1.0" fill-opacity="0.0" stroke="rgb(0,0,0)" stroke-width="1.4003707251792046" fill="rgb(0,0,0)" stroke-linecap="butt" stroke-miterlimit="10.0"><path d="M 293.1298,240.2290 c 0.0000,-49.3262 -39.9868,-89.3130 -89.3130 -89.3130c -49.3262,-0.0000 -89.3130,39.9868 -89.3130 89.3130"/></g><g stroke-linejoin="miter" stroke-opacity="1.0" fill-opacity="1.0" font-size="9.16030534351145px" stroke="rgb(0,0,0)" stroke-width="1.4003707251792046" fill="rgb(0,0,0)" stroke-linecap="butt" stroke-miterlimit="10.0"><text dominant-baseline="middle" transform="matrix(1.0000,0.0000,0.0000,1.0000,293.1298,252.1374)" stroke="none" text-anchor="middle">C</text></g><g stroke-linejoin="miter" stroke-opacity="1.0" fill-opacity="1.0" stroke="rgb(0,0,0)" stroke-width="1.4003707251792046" fill="rgb(130,147,86)" stroke-linecap="butt" stroke-miterlimit="10.0"><path d="M 297.7099,240.2290 c 0.0000,-2.5295 -2.0506,-4.5802 -4.5802 -4.5802c -2.5295,-0.0000 -4.5802,2.0506 -4.5802 4.5802c -0.0000,2.5295 2.0506,4.5802 4.5802 4.5802c 2.5295,0.0000 4.5802,-2.0506 4.5802 -4.5802Z"/></g><g stroke-linejoin="miter" stroke-opacity="1.0" fill-opacity="0.0" stroke="rgb(0,0,0)" stroke-width="1.4003707251792046" fill="rgb(0,0,0)" stroke-linecap="butt" stroke-miterlimit="10.0"><path d="M 283.9695,240.2290 h 4.5802 "/></g><g stroke-linejoin="miter" stroke-opacity="1.0" fill-opacity="0.0" stroke="rgb(0,0,0)" stroke-width="1.4003707251792046" fill="rgb(0,0,0)" stroke-linecap="butt" stroke-miterlimit="10.0"><path d="M 210.6870,240.2290 c 0.0000,-22.7659 -18.4554,-41.2214 -41.2214 -41.2214c -22.7659,-0.0000 -41.2214,18.4554 -41.2214 41.2214"/></g><g stroke-linejoin="miter" stroke-opacity="1.0" fill-opacity="0.0" stroke="rgb(0,0,0)" stroke-width="1.4003707251792046" fill="rgb(0,0,0)" stroke-linecap="butt" stroke-miterlimit="10.0"><path d="M 279.3893,240.2290 c 0.0000,-3.7943 -3.0759,-6.8702 -6.8702 -6.8702c -3.7943,-0.0000 -6.8702,3.0759 -6.8702 6.8702"/></g><g stroke-linejoin="miter" stroke-opacity="1.0" fill-opacity="1.0" font-size="9.16030534351145px" stroke="rgb(0,0,0)" stroke-width="1.4003707251792046" fill="rgb(0,0,0)" stroke-linecap="butt" stroke-miterlimit="10.0"><text dominant-baseline="middle" transform="matrix(1.0000,0.0000,0.0000,1.0000,279.3893,252.1374)" stroke="none" text-anchor="middle">C</text></g><g stroke-linejoin="miter" stroke-opacity="1.0" fill-opacity="1.0" stroke="rgb(0,0,0)" stroke-width="1.4003707251792046" fill="rgb(130,147,86)" stroke-linecap="butt" stroke-miterlimit="10.0"><path d="M 283.9695,240.2290 c 0.0000,-2.5295 -2.0506,-4.5802 -4.5802 -4.5802c -2.5295,-0.0000 -4.5802,2.0506 -4.5802 4.5802c -0.0000,2.5295 2.0506,4.5802 4.5802 4.5802c 2.5295,0.0000 4.5802,-2.0506 4.5802 -4.5802Z"/></g><g stroke-linejoin="miter" stroke-opacity="1.0" fill-opacity="0.0" stroke="rgb(0,0,0)" stroke-width="1.4003707251792046" fill="rgb(0,0,0)" stroke-linecap="butt" stroke-miterlimit="10.0"><path d="M 270.2290,240.2290 h 4.5802 "/></g><g stroke-linejoin="miter" stroke-opacity="1.0" fill-opacity="1.0" font-size="9.16030534351145px" stroke="rgb(0,0,0)" stroke-width="1.4003707251792046" fill="rgb(0,0,0)" stroke-linecap="butt" stroke-miterlimit="10.0"><text dominant-baseline="middle" transform="matrix(1.0000,0.0000,0.0000,1.0000,265.6489,252.1374)" stroke="none" text-anchor="middle">G</text></g><g stroke-linejoin="miter" stroke-opacity="1.0" fill-opacity="1.0" stroke="rgb(0,0,0)" stroke-width="1.4003707251792046" fill="rgb(16,120,150)" stroke-linecap="butt" stroke-miterlimit="10.0"><path d="M 270.2290,240.2290 c 0.0000,-2.5295 -2.0506,-4.5802 -4.5802 -4.5802c -2.5295,-0.0000 -4.5802,2.0506 -4.5802 4.5802c -0.0000,2.5295 2.0506,4.5802 4.5802 4.5802c 2.5295,0.0000 4.5802,-2.0506 4.5802 -4.5802Z"/></g><g stroke-linejoin="miter" stroke-opacity="1.0" fill-opacity="0.0" stroke="rgb(0,0,0)" stroke-width="1.4003707251792046" fill="rgb(0,0,0)" stroke-linecap="butt" stroke-miterlimit="10.0"><path d="M 256.4885,240.2290 h 4.5802 "/></g><g stroke-linejoin="miter" stroke-opacity="1.0" fill-opacity="1.0" font-size="9.16030534351145px" stroke="rgb(0,0,0)" stroke-width="1.4003707251792046" fill="rgb(0,0,0)" stroke-linecap="butt" stroke-miterlimit="10.0"><text dominant-baseline="middle" transform="matrix(1.0000,0.0000,0.0000,1.0000,251.9084,252.1374)" stroke="none" text-anchor="middle">A</text></g><g stroke-linejoin="miter" stroke-opacity="1.0" fill-opacity="1.0" stroke="rgb(0,0,0)" stroke-width="1.4003707251792046" fill="rgb(192,47,29)" stroke-linecap="butt" stroke-miterlimit="10.0"><path d="M 256.4885,240.2290 c 0.0000,-2.5295 -2.0506,-4.5802 -4.5802 -4.5802c -2.5295,-0.0000 -4.5802,2.0506 -4.5802 4.5802c -0.0000,2.5295 2.0506,4.5802 4.5802 4.5802c 2.5295,0.0000 4.5802,-2.0506 4.5802 -4.5802Z"/></g><g stroke-linejoin="miter" stroke-opacity="1.0" fill-opacity="0.0" stroke="rgb(0,0,0)" stroke-width="1.4003707251792046" fill="rgb(0,0,0)" stroke-linecap="butt" stroke-miterlimit="10.0"><path d="M 242.7481,240.2290 h 4.5802 "/></g><g stroke-linejoin="miter" stroke-opacity="1.0" fill-opacity="1.0" font-size="9.16030534351145px" stroke="rgb(0,0,0)" stroke-width="1.4003707251792046" fill="rgb(0,0,0)" stroke-linecap="butt" stroke-miterlimit="10.0"><text dominant-baseline="middle" transform="matrix(1.0000,0.0000,0.0000,1.0000,238.1679,252.1374)" stroke="none" text-anchor="middle">A</text></g><g stroke-linejoin="miter" stroke-opacity="1.0" fill-opacity="1.0" stroke="rgb(0,0,0)" stroke-width="1.4003707251792046" fill="rgb(192,47,29)" stroke-linecap="butt" stroke-miterlimit="10.0"><path d="M 242.7481,240.2290 c 0.0000,-2.5295 -2.0506,-4.5802 -4.5802 -4.5802c -2.5295,-0.0000 -4.5802,2.0506 -4.5802 4.5802c -0.0000,2.5295 2.0506,4.5802 4.5802 4.5802c 2.5295,0.0000 4.5802,-2.0506 4.5802 -4.5802Z"/></g><g stroke-linejoin="miter" stroke-opacity="1.0" fill-opacity="0.0" stroke="rgb(0,0,0)" stroke-width="1.4003707251792046" fill="rgb(0,0,0)" stroke-linecap="butt" stroke-miterlimit="10.0"><path d="M 229.0076,240.2290 h 4.5802 "/></g><g stroke-linejoin="miter" stroke-opacity="1.0" fill-opacity="1.0" font-size="9.16030534351145px" stroke="rgb(0,0,0)" stroke-width="1.4003707251792046" fill="rgb(0,0,0)" stroke-linecap="butt" stroke-miterlimit="10.0"><text dominant-baseline="middle" transform="matrix(1.0000,0.0000,0.0000,1.0000,224.4275,252.1374)" stroke="none" text-anchor="middle">A</text></g><g stroke-linejoin="miter" stroke-opacity="1.0" fill-opacity="1.0" stroke="rgb(0,0,0)" stroke-width="1.4003707251792046" fill="rgb(192,47,29)" stroke-linecap="butt" stroke-miterlimit="10.0"><path d="M 229.0076,240.2290 c 0.0000,-2.5295 -2.0506,-4.5802 -4.5802 -4.5802c -2.5295,-0.0000 -4.5802,2.0506 -4.5802 4.5802c -0.0000,2.5295 2.0506,4.5802 4.5802 4.5802c 2.5295,0.0000 4.5802,-2.0506 4.5802 -4.5802Z"/></g><g stroke-linejoin="miter" stroke-opacity="1.0" fill-opacity="0.0" stroke="rgb(0,0,0)" stroke-width="1.4003707251792046" fill="rgb(0,0,0)" stroke-linecap="butt" stroke-miterlimit="10.0"><path d="M 215.2672,240.2290 h 4.5802 "/></g><g stroke-linejoin="miter" stroke-opacity="1.0" fill-opacity="1.0" font-size="9.16030534351145px" stroke="rgb(0,0,0)" stroke-width="1.4003707251792046" fill="rgb(0,0,0)" stroke-linecap="butt" stroke-miterlimit="10.0"><text dominant-baseline="middle" transform="matrix(1.0000,0.0000,0.0000,1.0000,210.6870,252.1374)" stroke="none" text-anchor="middle">C</text></g><g stroke-linejoin="miter" stroke-opacity="1.0" fill-opacity="1.0" stroke="rgb(0,0,0)" stroke-width="1.4003707251792046" fill="rgb(130,147,86)" stroke-linecap="butt" stroke-miterlimit="10.0"><path d="M 215.2672,240.2290 c 0.0000,-2.5295 -2.0506,-4.5802 -4.5802 -4.5802c -2.5295,-0.0000 -4.5802,2.0506 -4.5802 4.5802c -0.0000,2.5295 2.0506,4.5802 4.5802 4.5802c 2.5295,0.0000 4.5802,-2.0506 4.5802 -4.5802Z"/></g><g stroke-linejoin="miter" stroke-opacity="1.0" fill-opacity="0.0" stroke="rgb(0,0,0)" stroke-width="1.4003707251792046" fill="rgb(0,0,0)" stroke-linecap="butt" stroke-miterlimit="10.0"><path d="M 201.5267,240.2290 h 4.5802 "/></g><g stroke-linejoin="miter" stroke-opacity="1.0" fill-opacity="0.0" stroke="rgb(0,0,0)" stroke-width="1.4003707251792046" fill="rgb(0,0,0)" stroke-linecap="butt" stroke-miterlimit="10.0"><path d="M 196.9466,240.2290 c 0.0000,-15.1773 -12.3036,-27.4809 -27.4809 -27.4809c -15.1773,-0.0000 -27.4809,12.3036 -27.4809 27.4809"/></g><g stroke-linejoin="miter" stroke-opacity="1.0" fill-opacity="1.0" font-size="9.16030534351145px" stroke="rgb(0,0,0)" stroke-width="1.4003707251792046" fill="rgb(0,0,0)" stroke-linecap="butt" stroke-miterlimit="10.0"><text dominant-baseline="middle" transform="matrix(1.0000,0.0000,0.0000,1.0000,196.9466,252.1374)" stroke="none" text-anchor="middle">C</text></g><g stroke-linejoin="miter" stroke-opacity="1.0" fill-opacity="1.0" stroke="rgb(0,0,0)" stroke-width="1.4003707251792046" fill="rgb(130,147,86)" stroke-linecap="butt" stroke-miterlimit="10.0"><path d="M 201.5267,240.2290 c 0.0000,-2.5295 -2.0506,-4.5802 -4.5802 -4.5802c -2.5295,-0.0000 -4.5802,2.0506 -4.5802 4.5802c -0.0000,2.5295 2.0506,4.5802 4.5802 4.5802c 2.5295,0.0000 4.5802,-2.0506 4.5802 -4.5802Z"/></g><g stroke-linejoin="miter" stroke-opacity="1.0" fill-opacity="0.0" stroke="rgb(0,0,0)" stroke-width="1.4003707251792046" fill="rgb(0,0,0)" stroke-linecap="butt" stroke-miterlimit="10.0"><path d="M 187.7863,240.2290 h 4.5802 "/></g><g stroke-linejoin="miter" stroke-opacity="1.0" fill-opacity="1.0" font-size="9.16030534351145px" stroke="rgb(0,0,0)" stroke-width="1.4003707251792046" fill="rgb(0,0,0)" stroke-linecap="butt" stroke-miterlimit="10.0"><text dominant-baseline="middle" transform="matrix(1.0000,0.0000,0.0000,1.0000,183.2061,252.1374)" stroke="none" text-anchor="middle">A</text></g><g stroke-linejoin="miter" stroke-opacity="1.0" fill-opacity="1.0" stroke="rgb(0,0,0)" stroke-width="1.4003707251792046" fill="rgb(192,47,29)" stroke-linecap="butt" stroke-miterlimit="10.0"><path d="M 187.7863,240.2290 c 0.0000,-2.5295 -2.0506,-4.5802 -4.5802 -4.5802c -2.5295,-0.0000 -4.5802,2.0506 -4.5802 4.5802c -0.0000,2.5295 2.0506,4.5802 4.5802 4.5802c 2.5295,0.0000 4.5802,-2.0506 4.5802 -4.5802Z"/></g><g stroke-linejoin="miter" stroke-opacity="1.0" fill-opacity="0.0" stroke="rgb(0,0,0)" stroke-width="1.4003707251792046" fill="rgb(0,0,0)" stroke-linecap="butt" stroke-miterlimit="10.0"><path d="M 174.0458,240.2290 h 4.5802 "/></g><g stroke-linejoin="miter" stroke-opacity="1.0" fill-opacity="1.0" font-size="9.16030534351145px" stroke="rgb(0,0,0)" stroke-width="1.4003707251792046" fill="rgb(0,0,0)" stroke-linecap="butt" stroke-miterlimit="10.0"><text dominant-baseline="middle" transform="matrix(1.0000,0.0000,0.0000,1.0000,169.4656,252.1374)" stroke="none" text-anchor="middle">A</text></g><g stroke-linejoin="miter" stroke-opacity="1.0" fill-opacity="1.0" stroke="rgb(0,0,0)" stroke-width="1.4003707251792046" fill="rgb(192,47,29)" stroke-linecap="butt" stroke-miterlimit="10.0"><path d="M 174.0458,240.2290 c 0.0000,-2.5295 -2.0506,-4.5802 -4.5802 -4.5802c -2.5295,-0.0000 -4.5802,2.0506 -4.5802 4.5802c -0.0000,2.5295 2.0506,4.5802 4.5802 4.5802c 2.5295,0.0000 4.5802,-2.0506 4.5802 -4.5802Z"/></g><g stroke-linejoin="miter" stroke-opacity="1.0" fill-opacity="0.0" stroke="rgb(0,0,0)" stroke-width="1.4003707251792046" fill="rgb(0,0,0)" stroke-linecap="butt" stroke-miterlimit="10.0"><path d="M 160.3053,240.2290 h 4.5802 "/></g><g stroke-linejoin="miter" stroke-opacity="1.0" fill-opacity="1.0" font-size="9.16030534351145px" stroke="rgb(0,0,0)" stroke-width="1.4003707251792046" fill="rgb(0,0,0)" stroke-linecap="butt" stroke-miterlimit="10.0"><text dominant-baseline="middle" transform="matrix(1.0000,0.0000,0.0000,1.0000,155.7252,252.1374)" stroke="none" text-anchor="middle">A</text></g><g stroke-linejoin="miter" stroke-opacity="1.0" fill-opacity="1.0" stroke="rgb(0,0,0)" stroke-width="1.4003707251792046" fill="rgb(192,47,29)" stroke-linecap="butt" stroke-miterlimit="10.0"><path d="M 160.3053,240.2290 c 0.0000,-2.5295 -2.0506,-4.5802 -4.5802 -4.5802c -2.5295,-0.0000 -4.5802,2.0506 -4.5802 4.5802c -0.0000,2.5295 2.0506,4.5802 4.5802 4.5802c 2.5295,0.0000 4.5802,-2.0506 4.5802 -4.5802Z"/></g><g stroke-linejoin="miter" stroke-opacity="1.0" fill-opacity="0.0" stroke="rgb(0,0,0)" stroke-width="1.4003707251792046" fill="rgb(0,0,0)" stroke-linecap="butt" stroke-miterlimit="10.0"><path d="M 146.5649,240.2290 h 4.5802 "/></g><g stroke-linejoin="miter" stroke-opacity="1.0" fill-opacity="1.0" font-size="9.16030534351145px" stroke="rgb(0,0,0)" stroke-width="1.4003707251792046" fill="rgb(0,0,0)" stroke-linecap="butt" stroke-miterlimit="10.0"><text dominant-baseline="middle" transform="matrix(1.0000,0.0000,0.0000,1.0000,141.9847,252.1374)" stroke="none" text-anchor="middle">G</text></g><g stroke-linejoin="miter" stroke-opacity="1.0" fill-opacity="1.0" stroke="rgb(0,0,0)" stroke-width="1.4003707251792046" fill="rgb(16,120,150)" stroke-linecap="butt" stroke-miterlimit="10.0"><path d="M 146.5649,240.2290 c 0.0000,-2.5295 -2.0506,-4.5802 -4.5802 -4.5802c -2.5295,-0.0000 -4.5802,2.0506 -4.5802 4.5802c -0.0000,2.5295 2.0506,4.5802 4.5802 4.5802c 2.5295,0.0000 4.5802,-2.0506 4.5802 -4.5802Z"/></g><g stroke-linejoin="miter" stroke-opacity="1.0" fill-opacity="0.0" stroke="rgb(0,0,0)" stroke-width="1.4003707251792046" fill="rgb(0,0,0)" stroke-linecap="butt" stroke-miterlimit="10.0"><path d="M 132.8244,240.2290 h 4.5802 "/></g><g stroke-linejoin="miter" stroke-opacity="1.0" fill-opacity="1.0" font-size="9.16030534351145px" stroke="rgb(0,0,0)" stroke-width="1.4003707251792046" fill="rgb(0,0,0)" stroke-linecap="butt" stroke-miterlimit="10.0"><text dominant-baseline="middle" transform="matrix(1.0000,0.0000,0.0000,1.0000,128.2443,252.1374)" stroke="none" text-anchor="middle">G</text></g><g stroke-linejoin="miter" stroke-opacity="1.0" fill-opacity="1.0" stroke="rgb(0,0,0)" stroke-width="1.4003707251792046" fill="rgb(16,120,150)" stroke-linecap="butt" stroke-miterlimit="10.0"><path d="M 132.8244,240.2290 c 0.0000,-2.5295 -2.0506,-4.5802 -4.5802 -4.5802c -2.5295,-0.0000 -4.5802,2.0506 -4.5802 4.5802c -0.0000,2.5295 2.0506,4.5802 4.5802 4.5802c 2.5295,0.0000 4.5802,-2.0506 4.5802 -4.5802Z"/></g><g stroke-linejoin="miter" stroke-opacity="1.0" fill-opacity="0.0" stroke="rgb(0,0,0)" stroke-width="1.4003707251792046" fill="rgb(0,0,0)" stroke-linecap="butt" stroke-miterlimit="10.0"><path d="M 119.0840,240.2290 h 4.5802 "/></g><g stroke-linejoin="miter" stroke-opacity="1.0" fill-opacity="1.0" font-size="9.16030534351145px" stroke="rgb(0,0,0)" stroke-width="1.4003707251792046" fill="rgb(0,0,0)" stroke-linecap="butt" stroke-miterlimit="10.0"><text dominant-baseline="middle" transform="matrix(1.0000,0.0000,0.0000,1.0000,114.5038,252.1374)" stroke="none" text-anchor="middle">G</text></g><g stroke-linejoin="miter" stroke-opacity="1.0" fill-opacity="1.0" stroke="rgb(0,0,0)" stroke-width="1.4003707251792046" fill="rgb(16,120,150)" stroke-linecap="butt" stroke-miterlimit="10.0"><path d="M 119.0840,240.2290 c 0.0000,-2.5295 -2.0506,-4.5802 -4.5802 -4.5802c -2.5295,-0.0000 -4.5802,2.0506 -4.5802 4.5802c -0.0000,2.5295 2.0506,4.5802 4.5802 4.5802c 2.5295,0.0000 4.5802,-2.0506 4.5802 -4.5802Z"/></g><g stroke-linejoin="miter" stroke-opacity="1.0" fill-opacity="0.0" stroke="rgb(0,0,0)" stroke-width="1.4003707251792046" fill="rgb(0,0,0)" stroke-linecap="butt" stroke-miterlimit="10.0"><path d="M 105.3435,240.2290 h 4.5802 "/></g><g stroke-linejoin="miter" stroke-opacity="1.0" fill-opacity="1.0" font-size="9.16030534351145px" stroke="rgb(0,0,0)" stroke-width="1.4003707251792046" fill="rgb(0,0,0)" stroke-linecap="butt" stroke-miterlimit="10.0"><text dominant-baseline="middle" transform="matrix(1.0000,0.0000,0.0000,1.0000,100.7634,252.1374)" stroke="none" text-anchor="middle">G</text></g><g stroke-linejoin="miter" stroke-opacity="1.0" fill-opacity="1.0" stroke="rgb(0,0,0)" stroke-width="1.4003707251792046" fill="rgb(16,120,150)" stroke-linecap="butt" stroke-miterlimit="10.0"><path d="M 105.3435,240.2290 c 0.0000,-2.5295 -2.0506,-4.5802 -4.5802 -4.5802c -2.5295,-0.0000 -4.5802,2.0506 -4.5802 4.5802c -0.0000,2.5295 2.0506,4.5802 4.5802 4.5802c 2.5295,0.0000 4.5802,-2.0506 4.5802 -4.5802Z"/></g><g stroke-linejoin="miter" stroke-opacity="1.0" fill-opacity="0.0" stroke="rgb(0,0,0)" stroke-width="1.4003707251792046" fill="rgb(0,0,0)" stroke-linecap="butt" stroke-miterlimit="10.0"><path d="M 91.6031,240.2290 h 4.5802 "/></g><g stroke-linejoin="miter" stroke-opacity="1.0" fill-opacity="1.0" font-size="9.16030534351145px" stroke="rgb(0,0,0)" stroke-width="1.4003707251792046" fill="rgb(0,0,0)" stroke-linecap="butt" stroke-miterlimit="10.0"><text dominant-baseline="middle" transform="matrix(1.0000,0.0000,0.0000,1.0000,87.0229,252.1374)" stroke="none" text-anchor="middle">A</text></g><g stroke-linejoin="miter" stroke-opacity="1.0" fill-opacity="1.0" stroke="rgb(0,0,0)" stroke-width="1.4003707251792046" fill="rgb(192,47,29)" stroke-linecap="butt" stroke-miterlimit="10.0"><path d="M 91.6031,240.2290 c 0.0000,-2.5295 -2.0506,-4.5802 -4.5802 -4.5802c -2.5295,-0.0000 -4.5802,2.0506 -4.5802 4.5802c -0.0000,2.5295 2.0506,4.5802 4.5802 4.5802c 2.5295,0.0000 4.5802,-2.0506 4.5802 -4.5802Z"/></g><g stroke-linejoin="miter" stroke-opacity="1.0" fill-opacity="0.0" stroke="rgb(0,0,0)" stroke-width="1.4003707251792046" fill="rgb(0,0,0)" stroke-linecap="butt" stroke-miterlimit="10.0"><path d="M 77.8626,240.2290 h 4.5802 "/></g><g stroke-linejoin="miter" stroke-opacity="1.0" fill-opacity="1.0" font-size="9.16030534351145px" stroke="rgb(0,0,0)" stroke-width="1.4003707251792046" fill="rgb(0,0,0)" stroke-linecap="butt" stroke-miterlimit="10.0"><text dominant-baseline="middle" transform="matrix(1.0000,0.0000,0.0000,1.0000,73.2824,252.1374)" stroke="none" text-anchor="middle">A</text></g><g stroke-linejoin="miter" stroke-opacity="1.0" fill-opacity="1.0" stroke="rgb(0,0,0)" stroke-width="1.4003707251792046" fill="rgb(192,47,29)" stroke-linecap="butt" stroke-miterlimit="10.0"><path d="M 77.8626,240.2290 c 0.0000,-2.5295 -2.0506,-4.5802 -4.5802 -4.5802c -2.5295,-0.0000 -4.5802,2.0506 -4.5802 4.5802c -0.0000,2.5295 2.0506,4.5802 4.5802 4.5802c 2.5295,0.0000 4.5802,-2.0506 4.5802 -4.5802Z"/></g><g stroke-linejoin="miter" stroke-opacity="1.0" fill-opacity="0.0" stroke="rgb(0,0,0)" stroke-width="1.4003707251792046" fill="rgb(0,0,0)" stroke-linecap="butt" stroke-miterlimit="10.0"><path d="M 64.1221,240.2290 h 4.5802 "/></g><g stroke-linejoin="miter" stroke-opacity="1.0" fill-opacity="1.0" font-size="9.16030534351145px" stroke="rgb(0,0,0)" stroke-width="1.4003707251792046" fill="rgb(0,0,0)" stroke-linecap="butt" stroke-miterlimit="10.0"><text dominant-baseline="middle" transform="matrix(1.0000,0.0000,0.0000,1.0000,59.5420,252.1374)" stroke="none" text-anchor="middle">A</text></g><g stroke-linejoin="miter" stroke-opacity="1.0" fill-opacity="1.0" stroke="rgb(0,0,0)" stroke-width="1.4003707251792046" fill="rgb(192,47,29)" stroke-linecap="butt" stroke-miterlimit="10.0"><path d="M 64.1221,240.2290 c 0.0000,-2.5295 -2.0506,-4.5802 -4.5802 -4.5802c -2.5295,-0.0000 -4.5802,2.0506 -4.5802 4.5802c -0.0000,2.5295 2.0506,4.5802 4.5802 4.5802c 2.5295,0.0000 4.5802,-2.0506 4.5802 -4.5802Z"/></g><g stroke-linejoin="miter" stroke-opacity="1.0" fill-opacity="0.0" stroke="rgb(0,0,0)" stroke-width="1.4003707251792046" fill="rgb(0,0,0)" stroke-linecap="butt" stroke-miterlimit="10.0"><path d="M 50.3817,240.2290 h 4.5802 "/></g><g stroke-linejoin="miter" stroke-opacity="1.0" fill-opacity="1.0" font-size="9.16030534351145px" stroke="rgb(0,0,0)" stroke-width="1.4003707251792046" fill="rgb(0,0,0)" stroke-linecap="butt" stroke-miterlimit="10.0"><text dominant-baseline="middle" transform="matrix(1.0000,0.0000,0.0000,1.0000,45.8015,252.1374)" stroke="none" text-anchor="middle">A</text></g><g stroke-linejoin="miter" stroke-opacity="1.0" fill-opacity="1.0" stroke="rgb(0,0,0)" stroke-width="1.4003707251792046" fill="rgb(192,47,29)" stroke-linecap="butt" stroke-miterlimit="10.0"><path d="M 50.3817,240.2290 c 0.0000,-2.5295 -2.0506,-4.5802 -4.5802 -4.5802c -2.5295,-0.0000 -4.5802,2.0506 -4.5802 4.5802c -0.0000,2.5295 2.0506,4.5802 4.5802 4.5802c 2.5295,0.0000 4.5802,-2.0506 4.5802 -4.5802Z"/></g><g stroke-linejoin="miter" stroke-opacity="1.0" fill-opacity="0.0" stroke="rgb(0,0,0)" stroke-width="1.4003707251792046" fill="rgb(0,0,0)" stroke-linecap="butt" stroke-miterlimit="10.0"><path d="M 36.6412,240.2290 h 4.5802 "/></g><g stroke-linejoin="miter" stroke-opacity="1.0" fill-opacity="1.0" font-size="9.16030534351145px" stroke="rgb(0,0,0)" stroke-width="1.4003707251792046" fill="rgb(0,0,0)" stroke-linecap="butt" stroke-miterlimit="10.0"><text dominant-baseline="middle" transform="matrix(1.0000,0.0000,0.0000,1.0000,32.0611,252.1374)" stroke="none" text-anchor="middle">A</text></g><g stroke-linejoin="miter" stroke-opacity="1.0" fill-opacity="1.0" stroke="rgb(0,0,0)" stroke-width="1.4003707251792046" fill="rgb(192,47,29)" stroke-linecap="butt" stroke-miterlimit="10.0"><path d="M 36.6412,240.2290 c 0.0000,-2.5295 -2.0506,-4.5802 -4.5802 -4.5802c -2.5295,-0.0000 -4.5802,2.0506 -4.5802 4.5802c -0.0000,2.5295 2.0506,4.5802 4.5802 4.5802c 2.5295,0.0000 4.5802,-2.0506 4.5802 -4.5802Z"/></g><g stroke-linejoin="miter" stroke-opacity="1.0" fill-opacity="0.0" stroke="rgb(0,0,0)" stroke-width="1.4003707251792046" fill="rgb(0,0,0)" stroke-linecap="butt" stroke-miterlimit="10.0"><path d="M 22.9008,240.2290 h 4.5802 "/></g><g stroke-linejoin="miter" stroke-opacity="1.0" fill-opacity="1.0" font-size="9.16030534351145px" stroke="rgb(0,0,0)" stroke-width="1.4003707251792046" fill="rgb(0,0,0)" stroke-linecap="butt" stroke-miterlimit="10.0"><text dominant-baseline="middle" transform="matrix(1.0000,0.0000,0.0000,1.0000,18.3206,252.1374)" stroke="none" text-anchor="middle">A</text></g><g stroke-linejoin="miter" stroke-opacity="1.0" fill-opacity="1.0" stroke="rgb(0,0,0)" stroke-width="1.4003707251792046" fill="rgb(192,47,29)" stroke-linecap="butt" stroke-miterlimit="10.0"><path d="M 22.9008,240.2290 c 0.0000,-2.5295 -2.0506,-4.5802 -4.5802 -4.5802c -2.5295,-0.0000 -4.5802,2.0506 -4.5802 4.5802c -0.0000,2.5295 2.0506,4.5802 4.5802 4.5802c 2.5295,0.0000 4.5802,-2.0506 4.5802 -4.5802Z"/></g><g stroke-linejoin="miter" stroke-opacity="1.0" fill-opacity="0.0" stroke="rgb(0,0,0)" stroke-width="1.4003707251792046" fill="rgb(0,0,0)" stroke-linecap="butt" stroke-miterlimit="10.0"><path d="M 9.1603,240.2290 h 4.5802 "/></g><g stroke-linejoin="miter" stroke-opacity="1.0" fill-opacity="1.0" font-size="9.16030534351145px" stroke="rgb(0,0,0)" stroke-width="1.4003707251792046" fill="rgb(0,0,0)" stroke-linecap="butt" stroke-miterlimit="10.0"><text dominant-baseline="middle" transform="matrix(1.0000,0.0000,0.0000,1.0000,4.5802,252.1374)" stroke="none" text-anchor="middle">G</text></g><g stroke-linejoin="miter" stroke-opacity="1.0" fill-opacity="1.0" stroke="rgb(0,0,0)" stroke-width="1.4003707251792046" fill="rgb(16,120,150)" stroke-linecap="butt" stroke-miterlimit="10.0"><path d="M 9.1603,240.2290 c 0.0000,-2.5295 -2.0506,-4.5802 -4.5802 -4.5802c -2.5295,-0.0000 -4.5802,2.0506 -4.5802 4.5802c -0.0000,2.5295 2.0506,4.5802 4.5802 4.5802c 2.5295,0.0000 4.5802,-2.0506 4.5802 -4.5802Z"/></g></svg>